<svg width="103" height="101" viewBox="0 0 103 101" fill="none" xmlns="http://www.w3.org/2000/svg">
<path d="M51.4998 0C39.2711 0.000509826 27.4415 4.37577 18.1278 12.3429C8.81414 20.31 2.62405 31.3492 0.665172 43.485C-1.29371 55.6209 1.10644 68.0616 7.43617 78.5811C13.7659 89.1006 23.6121 97.0124 35.2131 100.901C37.7881 101.354 38.7537 99.8008 38.7537 98.4415C38.7537 97.2118 38.6893 93.1343 38.6893 88.798C25.75 91.1926 22.4025 85.6268 21.3725 82.7143C20.2296 79.8817 18.4178 77.3715 16.0938 75.4006C14.2913 74.4298 11.7163 72.0351 16.0294 71.9705C17.6762 72.1502 19.2558 72.7263 20.6341 73.6501C22.0125 74.574 23.149 75.8182 23.9475 77.2775C24.6518 78.5497 25.599 79.6696 26.7346 80.5731C27.8702 81.4766 29.172 82.146 30.5653 82.5428C31.9587 82.9396 33.4163 83.0561 34.8545 82.8856C36.2927 82.7151 37.6833 82.2609 38.9466 81.5491C39.1696 78.9169 40.3364 76.4558 42.2298 74.6241C30.7712 73.3297 18.7975 68.8637 18.7975 49.0591C18.7251 43.9132 20.6138 38.9345 24.0762 35.144C22.5018 30.6715 22.686 25.7634 24.5912 21.423C24.5912 21.423 28.9042 20.0638 38.7536 26.7302C47.1804 24.4 56.0766 24.4 64.5034 26.7302C74.3526 19.9991 78.6658 21.423 78.6658 21.423C80.5713 25.7633 80.7555 30.6716 79.1808 35.144C82.6537 38.928 84.544 43.9111 84.4595 49.0591C84.4595 68.9285 72.4214 73.3297 60.9628 74.6241C62.1919 75.8765 63.1384 77.3802 63.7383 79.033C64.3381 80.6858 64.5771 82.449 64.4391 84.2029C64.4391 91.1282 64.3746 96.6941 64.3746 98.4417C64.3746 99.8009 65.3403 101.419 67.9152 100.901C79.4958 96.9809 89.3137 89.0505 95.6165 78.5256C101.919 68.0008 104.297 55.5665 102.324 43.4423C100.352 31.3182 94.1578 20.2934 84.8482 12.336C75.5386 4.37855 63.7191 0.00639401 51.4998 0Z" fill="#C7C8C9"/>
</svg>
