<svg width="87" height="99" viewBox="0 0 87 99" fill="none" xmlns="http://www.w3.org/2000/svg">
<g clip-path="url(#clip0_2_14)">
<path d="M86.8416 0.00340271L78.9439 88.8102L43.4434 98.6889L8.04071 88.8238L0.151215 0.00340271H86.8416Z" fill="#C7C8C9"/>
<path d="M43.4964 91.1378L72.1826 83.1552L78.9313 7.26561H43.4964V91.1378Z" fill="#C7C8C9"/>
<path d="M28.1435 29.0529H43.4964V18.1594H16.2829L16.5426 21.0819L19.2101 51.1014H43.4964V40.208H29.1354L28.1435 29.0529ZM30.5895 56.5483H19.695L21.2154 73.6527L43.4464 79.847L43.4964 79.8333V68.4995L43.4488 68.5121L31.3623 65.2363L30.5895 56.5483Z" fill="#EBEBEB"/>
<path d="M43.459 51.1014H56.8229L55.5629 65.2295L43.4587 68.5087V79.8419L65.7074 73.6527L65.8705 71.8122L68.4212 43.1332L68.6859 40.208H43.459V51.1014ZM43.459 29.0263V29.0529H69.6734L69.8909 26.6045L70.3857 21.0819L70.6449 18.1594H43.459V29.0263Z" fill="white"/>
</g>
<defs>
<clipPath id="clip0_2_14">
<rect width="87" height="99" fill="white"/>
</clipPath>
</defs>
</svg>
