<svg width="105" height="105" viewBox="0 0 105 105" fill="none" xmlns="http://www.w3.org/2000/svg">
<g clip-path="url(#clip0_1_11)">
<path d="M0 105H105V0H0V105ZM86.555 81.5019C85.4394 77.2975 76.7069 76.3175 70.735 71.855C64.6975 67.7862 63.2581 57.9425 68.2456 52.2944C69.9519 50.1944 72.7694 48.6194 75.7269 47.8975L78.8112 47.5081C84.7831 47.3725 88.4537 48.9475 91.21 52.0319C92.0062 52.815 92.5925 53.6069 93.7738 55.4444C90.6194 57.4088 90.6194 57.4088 86.0956 60.3663C85.1069 58.2663 83.5319 56.9537 81.8256 56.4287C79.2006 55.6412 75.8537 56.49 75.1975 59.3162C74.9394 60.1694 75.0006 60.9569 75.3987 62.4006C76.4619 64.8287 80.0406 65.8787 83.2606 67.3881C92.5138 71.1419 95.6331 75.1669 96.3988 79.9575L96.1975 79.6644C96.9238 83.7987 96.0006 86.4894 95.8737 86.8831C92.4569 98.5644 73.4256 98.9581 65.8131 91.2756C64.2381 89.4381 63.1881 88.5237 62.2694 86.4237L70.2756 81.8256C72.4412 85.1069 74.4056 86.8831 77.9538 87.6706C82.7488 88.2612 87.605 86.6206 86.555 81.5019ZM35.5819 83.02C35.6563 83.02 35.8619 83.4181 36.1375 83.8775C37.1569 85.5794 38.0363 86.7606 39.7688 87.6181C41.4575 88.1475 45.1763 88.5325 46.62 85.5181C47.4994 83.9956 47.2237 79.0475 47.2237 73.6575C47.2237 65.1656 47.2631 56.7394 47.2631 48.2606H57.0981L57.0806 48.5056C57.0806 57.5619 57.1331 66.5525 57.0806 75.5388C57.1025 81.1213 57.575 86.1087 55.3437 90.1775C53.7994 93.3275 50.8462 95.3619 47.4206 96.3506C42.1575 97.5319 37.1306 96.81 33.39 94.5788C30.8787 93.0694 28.9319 90.6981 27.5975 87.9419L35.5819 83.02Z" fill="#C7C8C9"/>
</g>
<defs>
<clipPath id="clip0_1_11">
<rect width="105" height="105" fill="white"/>
</clipPath>
</defs>
</svg>
