<svg width="56" height="27" viewBox="0 0 56 27" fill="none" xmlns="http://www.w3.org/2000/svg">
<path d="M0.451427 26.9937H4.84088C4.93569 26.9947 5.02763 26.9607 5.09962 26.8981C5.17161 26.8356 5.21875 26.7486 5.23229 26.6534L6.21083 21.4927H9.62175C11.0496 21.529 12.4742 21.3376 13.8434 20.9256C14.9529 20.5535 15.9657 19.9333 16.807 19.1109C17.5626 18.4219 18.1962 17.6067 18.6802 16.7007C19.159 15.8143 19.4985 14.8576 19.6867 13.8651C19.9838 12.8247 20.0348 11.7279 19.8356 10.6637C19.6365 9.59956 19.1927 8.598 18.5404 7.74033C17.7847 6.96146 16.8699 6.35985 15.8605 5.97776C14.851 5.59566 13.7713 5.44236 12.6972 5.52861H4.30967C4.20906 5.5332 4.11292 5.57209 4.03681 5.63899C3.9607 5.70589 3.90908 5.79688 3.8903 5.89723L0.0320522 26.4833C-0.0106841 26.6023 -0.0106841 26.7329 0.0320522 26.8519C0.0854015 26.9082 0.151445 26.9506 0.224498 26.9753C0.297552 27 0.375429 27.0063 0.451427 26.9937ZM8.41954 9.52673H11.2154C11.7473 9.45426 12.2881 9.48963 12.8064 9.63079C13.3248 9.77195 13.8103 10.0161 14.2349 10.349C14.7102 10.8594 14.794 11.8235 14.5424 13.1846C14.4022 14.4022 13.8369 15.5288 12.9488 16.3604C11.8415 17.0715 10.5369 17.3997 9.23033 17.2961H6.99367L8.41954 9.52673ZM35.8187 6.83296C34.3051 5.70438 32.4309 5.18875 30.5625 5.38683H27.2355L28.1581 0.396268C28.1854 0.338761 28.1995 0.275768 28.1995 0.211958C28.1995 0.148148 28.1854 0.085155 28.1581 0.0276472C28.0588 -0.00921572 27.9498 -0.00921572 27.8506 0.0276472H23.4611C23.3663 0.0266616 23.2743 0.0606134 23.2024 0.123196C23.1304 0.185778 23.0832 0.272735 23.0697 0.367912L19.2114 20.9823C19.1845 21.0349 19.1704 21.0932 19.1704 21.1525C19.1704 21.2117 19.1845 21.2701 19.2114 21.3226C19.2444 21.3749 19.2899 21.418 19.3437 21.4477C19.3974 21.4775 19.4577 21.493 19.519 21.4927H23.8246C23.9237 21.493 24.0192 21.4551 24.0919 21.3867C24.1645 21.3182 24.2089 21.2244 24.216 21.1241L26.3688 9.58344H29.4721C30.7303 9.58344 31.1776 9.86699 31.3174 10.0371C31.4312 10.3158 31.4898 10.6145 31.4898 10.9161C31.4898 11.2178 31.4312 11.5165 31.3174 11.7952L29.6119 20.9823C29.585 21.0349 29.5709 21.0932 29.5709 21.1525C29.5709 21.2117 29.585 21.2701 29.6119 21.3226C29.6466 21.3732 29.6925 21.415 29.7459 21.4445C29.7993 21.474 29.8587 21.4906 29.9195 21.4927H34.281C34.3816 21.4881 34.4777 21.4492 34.5538 21.3824C34.6299 21.3155 34.6815 21.2245 34.7003 21.1241L36.4897 11.4833C36.7784 10.7145 36.8683 9.88354 36.7508 9.06955C36.6334 8.25556 36.3125 7.4856 35.8187 6.83296ZM48.4558 5.38683H39.7049C39.6534 5.38297 39.6018 5.38946 39.5528 5.40592C39.5039 5.42237 39.4586 5.44848 39.4196 5.48273C39.3807 5.51699 39.3487 5.55872 39.3257 5.60552C39.3027 5.65232 39.289 5.70327 39.2855 5.75545L35.2036 26.4833C35.1781 26.5413 35.165 26.6041 35.165 26.6676C35.165 26.7311 35.1781 26.7939 35.2036 26.8519C35.2412 26.8973 35.2883 26.9337 35.3415 26.9582C35.3947 26.9827 35.4527 26.9949 35.5111 26.9937H40.0683C40.1678 27.0019 40.2667 26.9713 40.3446 26.908C40.4226 26.8448 40.4738 26.7537 40.4877 26.6534L41.5222 21.4927H45.0729C46.5465 21.5256 48.0166 21.3344 49.4344 20.9256C50.6551 20.5812 51.783 19.9608 52.7334 19.1109C53.5139 18.4239 54.1754 17.6093 54.6905 16.7007C55.1781 15.8156 55.5271 14.859 55.725 13.8651C56.0297 12.8237 56.0821 11.7231 55.8777 10.6568C55.6732 9.59052 55.218 8.59002 54.5507 7.74033C53.7602 6.92827 52.807 6.29789 51.7554 5.89185C50.7039 5.48582 49.5787 5.31359 48.4558 5.38683ZM50.1892 13.2413C50.022 14.4691 49.4269 15.5957 48.5117 16.4171C47.3644 17.1314 46.0236 17.459 44.6814 17.3528H42.4448L43.9545 9.52673H46.7504C47.868 9.3878 48.9961 9.68144 49.9096 10.349C50.357 10.8594 50.357 11.8235 50.1892 13.2413Z" fill="#C7C8C9"/>
</svg>
