<svg width="102" height="115" viewBox="0 0 102 115" fill="none" xmlns="http://www.w3.org/2000/svg">
<path d="M45.8575 48.518C44.1038 49.5335 42.6897 51.0478 41.794 52.8694C40.8984 54.691 40.5615 56.738 40.8258 58.7517C41.0901 60.7654 41.9439 62.6552 43.2791 64.1822C44.6143 65.7093 46.371 66.8048 48.327 67.3305C50.283 67.8561 52.3505 67.7882 54.268 67.1352C56.1855 66.4823 57.8669 65.2738 59.0996 63.6624C60.3323 62.051 61.0609 60.1091 61.1932 58.0824C61.3256 56.0557 60.8557 54.0351 59.8431 52.2763C58.4853 49.9179 56.2491 48.197 53.6263 47.4922C51.0035 46.7874 48.209 47.1564 45.8575 48.518ZM91.7472 59.6596C91.075 58.8891 90.3657 58.1165 89.6194 57.3419C90.1407 56.7923 90.6452 56.2432 91.1328 55.6946C100.339 45.32 104.224 34.9158 100.624 28.6608C97.1719 22.6636 86.9029 20.8764 74.047 23.3835C72.7807 23.632 71.5214 23.9123 70.269 24.2244C70.0293 23.3955 69.7743 22.5713 69.5041 21.7519C65.1428 8.56989 58.0977 -0.00454068 50.897 1.80398e-06C43.9923 0.00316429 37.3189 8.03324 33.0618 20.4556C32.6429 21.681 32.2555 22.9167 31.8994 24.1626C31.0621 23.9566 30.2212 23.7663 29.3769 23.5917C15.813 20.7984 4.88809 22.6381 1.29492 28.8966C-2.15052 34.8982 1.45274 44.708 10.0576 54.6111C10.911 55.591 11.7886 56.5489 12.6903 57.4848C11.6273 58.583 10.6207 59.6806 9.68253 60.7721C1.2862 70.5356 -2.11102 80.185 1.32885 86.1606C4.88144 92.3331 15.6526 94.3507 28.7628 91.7632C29.8253 91.5519 30.8819 91.3142 31.9326 91.0502C32.3175 92.3978 32.7397 93.7337 33.1993 95.0579C37.4377 107.231 44.0736 115.002 50.9539 115C58.0594 114.996 65.1825 106.646 69.4982 93.9623C69.839 92.9599 70.1616 91.919 70.4674 90.8472C71.8247 91.1859 73.1908 91.4864 74.5655 91.7488C87.1971 94.1458 97.2247 92.2605 100.658 86.2806C104.204 80.1035 100.548 69.7434 91.7472 59.6596ZM5.53946 31.348C7.75153 27.4955 16.6797 25.9925 28.391 28.404C29.1395 28.5584 29.9008 28.7309 30.6749 28.9215C29.5315 33.9945 28.7247 39.138 28.2599 44.3181C24.0342 47.2997 20.0053 50.5526 16.1986 54.0562C15.3599 53.1862 14.5436 52.2952 13.7496 51.3831C6.3768 42.8978 3.46308 34.9646 5.53946 31.348ZM27.8211 64.2844C24.8941 62.0615 22.1739 59.7842 19.705 57.4937C22.1722 55.2174 24.8941 52.9478 27.8151 50.7308C27.7102 52.9892 27.6581 55.2494 27.6591 57.5112C27.6606 59.7698 27.7146 62.0275 27.8211 64.2844ZM27.8176 86.9428C22.8487 88.051 17.7189 88.2325 12.6845 87.4784C11.3044 87.3706 9.96105 86.9801 8.73737 86.331C7.51369 85.6819 6.43572 84.7881 5.57007 83.7046C3.48291 80.0783 6.21077 72.3312 13.3915 63.9809C14.2943 62.9344 15.2266 61.9152 16.1886 60.9234C19.9959 64.4454 24.0313 67.711 28.2684 70.6987C28.7396 75.945 29.5559 81.1543 30.7118 86.2927C29.7526 86.5333 28.7878 86.75 27.8176 86.9428ZM68.5273 40.7167C66.6045 39.5015 64.658 38.3253 62.6877 37.1882C60.7489 36.0689 58.7867 34.9916 56.8012 33.9563C60.2008 32.5227 63.5426 31.2982 66.7687 30.3004C67.5292 33.7406 68.1161 37.2171 68.5273 40.7167ZM37.6939 22.0524C41.3413 11.4084 46.7382 4.9144 50.8996 4.91262C55.3316 4.91049 61.0899 11.9176 64.8553 23.2989C65.0999 24.0409 65.3311 24.787 65.5489 25.5373C60.6021 27.0762 55.7623 28.9417 51.0611 31.1217C46.3795 28.9161 41.5549 27.0297 36.6201 25.4755C36.9499 24.3258 37.3079 23.1848 37.6939 22.0524ZM35.3986 30.2392C38.7637 31.3017 42.0732 32.5338 45.3146 33.9307C41.2984 36.0095 37.386 38.2738 33.5774 40.7237C34.0375 37.0552 34.6498 33.5404 35.3986 30.2392ZM33.5857 74.2879C35.485 75.5074 37.4121 76.6818 39.3669 77.8111C41.3609 78.9626 43.3815 80.0658 45.4287 81.1206C42.1625 82.5658 38.8246 83.8419 35.428 84.9439C34.6704 81.5969 34.0515 78.0203 33.5857 74.2879ZM64.8624 92.3746C63.3372 97.2455 60.9312 101.793 57.7646 105.791C56.9821 106.936 55.9734 107.908 54.8016 108.647C53.6297 109.386 52.3193 109.876 50.9513 110.086C46.7766 110.089 41.4482 103.848 37.8235 93.4375C37.3966 92.2067 37.0039 90.9647 36.6454 89.7115C41.6037 88.1071 46.448 86.1674 51.1448 83.9058C55.8846 86.0998 60.763 87.9793 65.7484 89.5322C65.4761 90.4866 65.1808 91.434 64.8624 92.3746ZM66.939 84.7603C63.6758 83.7483 60.2856 82.5033 56.837 81.0487C58.781 80.0225 60.7392 78.9387 62.7115 77.7974C64.7354 76.6253 66.7077 75.4237 68.6284 74.1928C68.2458 77.742 67.682 81.2691 66.939 84.7603ZM69.4975 57.49C69.5018 60.982 69.3931 64.4711 69.1715 67.9575C66.347 69.8747 63.3651 71.7467 60.2626 73.5432C57.173 75.3324 54.1117 76.9766 51.1088 78.4646C47.9487 76.9457 44.8496 75.3089 41.8115 73.5541C38.7904 71.81 35.8386 69.9527 32.956 67.9824C32.6926 64.4971 32.5598 61.0055 32.5578 57.5075C32.5554 54.012 32.686 50.5213 32.948 47.0331C35.7717 45.099 38.7319 43.2284 41.7925 41.4561C44.8672 39.6754 47.9668 38.0382 51.0493 36.5544C54.1704 38.0757 57.2352 39.7061 60.2438 41.4456C63.2627 43.1859 66.2228 45.0234 69.1239 46.958C69.3731 50.4633 69.4973 53.974 69.4975 57.49ZM74.9823 28.2063C85.997 26.0574 94.302 27.503 96.3825 31.1171C98.5988 34.9674 95.4224 43.4709 87.4747 52.4286C87.0355 52.9227 86.5796 53.4193 86.1075 53.9176C82.2349 50.4066 78.1284 47.164 73.8166 44.2125C73.3814 39.0891 72.6049 34.0006 71.4921 28.9812C72.6781 28.6885 73.8415 28.4302 74.9823 28.2063ZM74.2377 50.5433C77.1462 52.6731 79.9425 54.9529 82.6155 57.3733C79.9544 59.8336 77.1668 62.1527 74.2643 64.3211C74.3532 62.0444 74.3969 59.7666 74.3955 57.4877C74.3945 55.1724 74.3419 52.8576 74.2377 50.5433ZM96.413 83.8285C94.3293 87.4577 86.278 88.971 75.4754 86.9211C74.2374 86.6867 72.9671 86.4077 71.6645 86.0841C72.7504 81.0001 73.4925 75.8484 73.8857 70.664C78.1904 67.661 82.2839 64.3644 86.1373 60.7977C86.8116 61.5003 87.453 62.1997 88.0614 62.8957C91.5072 66.6536 94.2339 71.0152 96.1051 75.7633C96.7034 77.0151 97.0395 78.3767 97.0924 79.7639C97.1454 81.1511 96.9141 82.5345 96.413 83.8285Z" fill="#C7C8C9"/>
</svg>
