<svg width="148" height="89" viewBox="0 0 148 89" fill="none" xmlns="http://www.w3.org/2000/svg">
<path d="M122.1 26.0687C116.55 24.1568 111.652 20.7192 107.966 16.1499C103.904 11.059 98.7312 6.96491 92.8441 4.18088C86.957 1.39685 80.5113 -0.00336664 74 0.0873422C65.2411 -0.533136 56.5699 2.16915 49.7132 7.65605C42.8566 13.143 38.3175 21.0119 37 29.6958C39.595 25.3526 43.5006 21.9448 48.1547 19.9629C52.8089 17.981 57.9716 17.5271 62.9 18.6666C68.4403 20.6342 73.3309 24.0919 77.034 28.6595C81.1185 33.7098 86.3009 37.7615 92.1868 40.5065C98.0726 43.2514 104.507 44.6173 111 44.5C119.759 45.1205 128.43 42.4182 135.287 36.9313C142.143 31.4444 146.682 23.5755 148 14.8916C145.452 19.2867 141.559 22.746 136.895 24.7586C132.232 26.7712 127.045 27.2305 122.1 26.0687ZM25.9 62.9313C31.4496 64.8432 36.3482 68.2808 40.034 72.8501C44.0962 77.941 49.2688 82.0351 55.1559 84.8191C61.043 87.6031 67.4887 89.0034 74 88.9127C82.7589 89.5331 91.4301 86.8309 98.2868 81.344C105.143 75.857 109.682 67.9881 111 59.3042C108.405 63.6475 104.499 67.0552 99.8453 69.0371C95.1911 71.019 90.0284 71.4729 85.1 70.3334C79.5597 68.3658 74.6691 64.9081 70.966 60.3405C66.8705 55.3028 61.686 51.2599 55.8027 48.5161C49.9194 45.7723 43.4905 44.3992 37 44.5C28.2411 43.8795 19.5699 46.5818 12.7132 52.0687C5.85657 57.5556 1.31751 65.4245 0 74.1084C2.54787 69.7133 6.44102 66.254 11.1047 64.2414C15.7684 62.2288 20.9554 61.7695 25.9 62.9313Z" fill="#C7C8C9"/>
</svg>
