<svg width="111" height="111" viewBox="0 0 111 111" fill="none" xmlns="http://www.w3.org/2000/svg">
<path d="M55.5005 2.24848e-09C44.5235 -9.87835e-05 33.7931 3.25488 24.666 9.35332C15.539 15.4518 8.42536 24.1197 4.22468 34.2611C0.0239935 44.4025 -1.07506 55.5618 1.06651 66.3279C3.20809 77.0939 8.49409 86.9831 16.2561 94.7449C24.018 102.507 33.9074 107.792 44.6734 109.934C55.4395 112.075 66.5988 110.976 76.7401 106.775C86.8814 102.574 95.5492 95.46 101.647 86.3328C107.746 77.2057 111 66.4751 111 55.4982C110.983 40.784 105.131 26.6774 94.726 16.2731C84.3214 5.86874 70.2146 0.0164078 55.5005 2.24848e-09ZM5.60248 55.4982C5.59696 48.5004 7.06918 41.5804 9.92278 35.1909L33.7255 100.406C25.2942 96.3162 18.1847 89.9351 13.2111 81.9931C8.23747 74.051 5.60064 64.869 5.60248 55.4982ZM55.5005 105.4C50.7285 105.4 45.9811 104.716 41.4036 103.367L56.3767 59.8628L71.7129 101.883C71.8129 102.122 71.9326 102.352 72.0707 102.571C66.7475 104.446 61.1443 105.403 55.5005 105.4ZM62.3769 32.1029C65.3809 31.9451 68.0881 31.629 68.0881 31.629C68.6276 31.5792 69.1258 31.3191 69.4751 30.905C69.8244 30.4909 69.9967 29.956 69.9549 29.4159C69.9131 28.8757 69.6604 28.3737 69.2515 28.0183C68.8427 27.6629 68.3104 27.4827 67.7697 27.5165C67.7697 27.5165 59.6873 28.1509 54.4693 28.1509C49.5671 28.1509 41.3282 27.5165 41.3282 27.5165C40.7882 27.4843 40.2573 27.6655 39.8497 28.021C39.4421 28.3766 39.1904 28.878 39.149 29.4173C39.1075 29.9566 39.2795 30.4906 39.6279 30.9042C39.9763 31.3179 40.4733 31.5782 41.0118 31.629C41.0118 31.629 43.5565 31.9451 46.2454 32.1029L54.0195 53.4036L43.0972 86.1531L24.9277 32.1029C27.9339 31.9451 30.6382 31.6292 30.6382 31.6292C31.1772 31.5787 31.6749 31.3184 32.0237 30.9043C32.3725 30.4903 32.5445 29.9557 32.5026 29.4159C32.4607 28.8761 32.2083 28.3744 31.7998 28.0191C31.3913 27.6638 30.8595 27.4833 30.3191 27.5166C30.3191 27.5166 22.2388 28.1511 17.0208 28.1511C16.0845 28.1511 14.9802 28.1281 13.8095 28.0905C17.7767 22.0528 23.0079 16.9489 29.1415 13.1317C35.275 9.31454 42.1645 6.87513 49.3335 5.98222C56.5024 5.0893 63.7798 5.76418 70.6623 7.96019C77.5448 10.1562 83.8682 13.8209 89.1952 18.7009C88.9804 18.6877 88.7704 18.661 88.5495 18.661C86.2656 18.729 84.1017 19.699 82.5313 21.3587C80.9609 23.0183 80.1119 25.2325 80.17 27.5166C80.6932 31.7951 82.3896 35.8455 85.0716 39.2198C87.6939 43.336 89.1183 48.1011 89.1853 52.9812C88.6669 58.5071 87.3893 63.9351 85.3886 69.1121L80.4103 85.7417L62.3769 32.1029ZM80.5863 98.6281L95.8269 54.5632C98.246 48.9104 99.5351 42.8388 99.6217 36.6907C99.6248 34.9747 99.5127 33.2604 99.2863 31.5595C105.522 42.9714 107.057 56.3668 103.564 68.8935C100.072 81.4203 91.8272 92.089 80.5863 98.6281Z" fill="#C7C8C9"/>
</svg>
