<svg width="75" height="73" viewBox="0 0 75 73" fill="none" xmlns="http://www.w3.org/2000/svg">
<g clip-path="url(#clip0_150_519)">
<path d="M62.4776 0.0488281H12.5787C5.72934 0.0488281 0.17688 5.60129 0.17688 12.4506V60.482C0.17688 67.3313 5.72934 72.8837 12.5787 72.8837H62.4776C69.3269 72.8837 74.8793 67.3313 74.8793 60.482V12.4506C74.8793 5.60129 69.3269 0.0488281 62.4776 0.0488281Z" fill="#470137"/>
<path d="M39.4476 19.2031L30.1265 34.588L40.099 50.9248C40.1632 51.0392 40.181 51.1734 40.1491 51.3007C40.1337 51.3549 40.1004 51.3684 40.0494 51.3704L39.9927 51.3695L39.9239 51.3678C39.8865 51.3678 39.8448 51.3695 39.7984 51.3771H32.6083L32.4671 51.3748C32.0795 51.3646 31.8003 51.3091 31.6302 51.0249C30.9649 49.7288 30.2966 48.4343 29.6254 47.1413C29.0251 45.988 28.4083 44.8433 27.7754 43.7076L27.4958 43.2074C26.7388 41.862 25.9954 40.5089 25.2659 39.1484H25.2157C24.5419 40.4947 23.8486 41.8311 23.136 43.1572C22.4172 44.4937 21.7073 45.822 21.0061 47.1413C20.3044 48.4616 19.5862 49.7729 18.8514 51.0751C18.7332 51.3406 18.5368 51.3961 18.2634 51.4051L18.1496 51.4069H11.2842L11.2545 51.4078L11.1564 51.4165C11.1019 51.4197 11.0692 51.408 11.0587 51.3258C11.0398 51.2036 11.0666 51.0787 11.134 50.975L20.8056 35.0891L11.3843 19.1535C11.2842 19.0204 11.2676 18.9119 11.3341 18.8278C11.3711 18.785 11.4176 18.7514 11.4698 18.7296C11.522 18.7079 11.5785 18.6985 11.635 18.7024H18.7008C18.8549 18.6939 19.0089 18.7196 19.1519 18.7777C19.2716 18.8456 19.3746 18.9399 19.4525 19.0534C20.0539 20.3899 20.7221 21.7264 21.4572 23.0623C22.1866 24.3897 22.9299 25.7094 23.6872 27.0212C24.4328 28.3126 25.1266 29.6333 25.7669 30.9801H25.8171C26.4732 29.6336 27.1498 28.2972 27.8466 26.9713C28.5309 25.6684 29.2327 24.3567 29.9511 23.0372C30.6604 21.7345 31.3537 20.4233 32.0308 19.1036C32.0693 18.9799 32.1382 18.8678 32.2313 18.7777C32.3551 18.715 32.4941 18.6889 32.6322 18.7024H39.197C39.2573 18.6873 39.3209 18.6923 39.3782 18.7165C39.4355 18.7407 39.4834 18.7829 39.5147 18.8367C39.5459 18.8904 39.5589 18.9529 39.5516 19.0147C39.5443 19.0764 39.5171 19.1342 39.4742 19.1792L39.4479 19.2037L39.4476 19.2031ZM54.1751 52.0235L53.8296 52.0273C51.523 52.0624 49.2375 51.5831 47.1394 50.6243C45.1848 49.7196 43.5509 48.243 42.4538 46.3896C41.3476 44.5523 40.7797 42.2628 40.7511 39.5219L40.75 39.2987C40.7312 36.9987 41.319 34.7343 42.4541 32.7339C43.5902 30.7539 45.2463 29.1225 47.2433 28.0165L47.4151 27.9232C49.5862 26.7203 52.2089 26.1189 55.2828 26.1189L55.417 26.1204L55.5705 26.1253L55.7427 26.1329L55.9341 26.144L56.2557 26.1668L56.6199 26.196L56.8863 26.2193V16.3469C56.8863 16.1135 56.9867 15.9962 57.1869 15.9962H63.5013C63.5421 15.9903 63.5837 15.994 63.6229 16.0071C63.662 16.0201 63.6976 16.0421 63.7267 16.0712C63.7559 16.1004 63.7779 16.136 63.7909 16.1751C63.8039 16.2143 63.8077 16.2559 63.8018 16.2967V45.9136C63.8018 46.4109 63.8211 46.9466 63.8596 47.5197L63.953 48.8197L64.0026 49.5717C64.0088 49.6758 63.9833 49.7794 63.9296 49.8689C63.876 49.9583 63.7965 50.0295 63.7017 50.073C62.0727 50.7523 60.376 51.2562 58.6403 51.5761C57.1668 51.8481 55.6733 51.9977 54.1751 52.0235ZM56.8863 45.8132V32.1325C56.6155 32.0591 56.3389 32.0089 56.0596 31.9822C55.7182 31.9478 55.3753 31.9311 55.0322 31.932C53.8161 31.92 52.6144 32.1947 51.5243 32.7339C50.4626 33.2616 49.5561 34.056 48.8934 35.0392C48.2319 36.0068 47.8896 37.2703 47.8671 38.8297L47.866 38.9981C47.8416 40.0904 48.02 41.1778 48.3921 42.2051C48.695 43.0329 49.1739 43.7853 49.7957 44.4102C50.3907 44.9851 51.1112 45.414 51.9002 45.663C52.7337 45.9329 53.6048 46.0683 54.4809 46.0642C54.9484 46.0642 55.3826 46.0473 55.7839 46.0137C56.1039 45.9896 56.4211 45.9369 56.7316 45.8561L56.8863 45.8132Z" fill="#FF61F6"/>
</g>
<defs>
<clipPath id="clip0_150_519">
<rect width="74.7025" height="72.9516" fill="white" transform="translate(0.17688 0.0488281)"/>
</clipPath>
</defs>
</svg>
