<svg width="92" height="73" viewBox="0 0 92 73" fill="none" xmlns="http://www.w3.org/2000/svg">
<path d="M19.0146 0.136963C13.7911 0.136963 9.92571 4.70896 10.0988 9.66716C10.2651 14.4305 10.0491 20.6002 8.496 25.6314C6.93827 30.6772 4.30343 33.8735 0 34.284V38.9172C4.30343 39.3277 6.93827 42.524 8.496 47.5702C10.0491 52.6013 10.2651 58.7704 10.0988 63.5341C9.92571 68.4916 13.7911 73.0643 19.0153 73.0643H72.5393C77.7632 73.0643 81.6275 68.4923 81.4544 63.5341C81.2885 58.7708 81.5041 52.6013 83.0572 47.5702C84.616 42.5244 87.2437 39.3274 91.5471 38.9172V34.284C87.2437 33.8735 84.616 30.6772 83.0576 25.6314C81.5041 20.601 81.2885 14.4308 81.4544 9.66716C81.6275 4.70967 77.7632 0.136963 72.5393 0.136963H19.0139H19.0146ZM62.0661 45.0283C62.0661 51.8557 56.9738 55.9961 48.5228 55.9961H34.1364C33.7249 55.996 33.3303 55.8325 33.0394 55.5415C32.7485 55.2505 32.5851 54.8559 32.5851 54.4444V18.7568C32.585 18.553 32.6251 18.3512 32.7031 18.1629C32.781 17.9746 32.8953 17.8035 33.0394 17.6594C33.1835 17.5153 33.3546 17.4009 33.5428 17.3229C33.7311 17.2449 33.9329 17.2048 34.1367 17.2048H48.4406C55.4872 17.2048 60.1118 21.0222 60.1118 26.8827C60.1118 30.9962 57.0006 34.6788 53.0373 35.3236V35.5385C58.4332 36.1304 62.0661 39.867 62.0661 45.0283ZM46.9537 22.1237H38.7513V33.7101H45.6602C51.0007 33.7101 53.9459 31.5594 53.9459 27.7152C53.9459 24.113 51.4134 22.1237 46.954 22.1237H46.9537ZM38.7513 38.3075V51.0758H47.2558C52.8159 51.0758 55.7619 48.8447 55.7619 44.6514C55.7619 40.4574 52.734 38.3068 46.8982 38.3068H38.7513V38.3075Z" fill="#7E13F8"/>
</svg>
