<svg width="77" height="35" viewBox="0 0 77 35" fill="none" xmlns="http://www.w3.org/2000/svg">
<path d="M2.73139 31.9585C0.890669 29.9611 0 27.1466 0 23.6057V11.4851C0 7.71725 0.890669 4.85733 2.67201 2.90532C4.45335 0.953307 7.541 0 12.0537 0C16.0914 0 19.0009 0.817121 20.7229 2.49676C22.5042 4.17639 23.3355 6.62776 23.3355 9.85084V12.5746H17.3977V10.1686C17.3977 8.57977 17.279 7.35409 17.1008 6.53697C16.9821 5.67445 16.5071 4.99352 15.7352 4.49416C15.0226 3.99481 13.7757 3.72244 12.1131 3.72244C10.4505 3.72244 9.1442 3.99481 8.31291 4.53956C7.48162 5.08431 6.94722 5.85603 6.65033 6.80934C6.41282 7.76265 6.23468 9.07912 6.23468 10.7134V24.2866C6.23468 26.0571 6.41282 27.4189 6.76909 28.4176C7.12535 29.4163 7.71913 30.0973 8.55042 30.5512C9.50047 31.0052 10.6287 31.2322 12.1131 31.2322C13.7163 31.2322 14.9039 30.9598 15.6758 30.415C16.4477 29.8703 16.9227 29.144 17.1602 28.2361C17.3384 27.2828 17.4571 26.0117 17.4571 24.4228V21.8353H23.3949V24.3774C23.3949 27.7821 22.5636 30.415 20.901 32.2309C19.2385 34.0467 16.2696 34.9546 12.1131 34.9546C7.65975 35 4.51272 34.0013 2.73139 31.9585Z" fill="#3A5E68"/>
<path d="M31.3515 32.3217C29.3327 30.5512 28.2639 28.0999 28.0264 25.013L33.5485 23.8781C33.7267 26.1025 34.3204 27.8729 35.2111 29.2348C36.1611 30.5966 37.705 31.2776 39.902 31.2776C41.5645 31.2322 42.8115 30.869 43.6428 30.1881C44.4741 29.5071 44.8897 28.5084 44.8897 27.192C44.8897 25.7847 44.4741 24.6044 43.7021 23.6965C42.9302 22.7432 41.6833 21.6991 40.0207 20.5642L32.4797 15.4799C30.9359 14.4812 29.8671 13.3917 29.1545 12.2114C28.5014 11.0311 28.1451 9.62387 28.1451 7.94423C28.1451 5.44747 29.0952 3.49546 30.9953 2.0882C32.836 0.680934 35.4486 0 38.655 0C42.2177 0 44.8897 0.726329 46.671 2.17899C48.4524 3.63165 49.5806 5.85603 49.9368 8.85214L44.5928 9.94163C44.4741 7.94423 43.9397 6.40078 43.1084 5.31128C42.2771 4.22179 40.7926 3.67704 38.655 3.67704C37.0518 3.67704 35.8643 3.99481 34.9736 4.63035C34.1423 5.26589 33.7267 6.2192 33.7267 7.44488C33.7267 8.44358 33.9642 9.3061 34.3798 10.0324C34.8548 10.7134 35.6267 11.3943 36.6955 12.1206L44.2959 17.2049C46.2554 18.5214 47.7992 19.9741 48.9274 21.5175C50.115 23.061 50.6494 24.8314 50.6494 26.8288C50.6494 29.3256 49.6399 31.323 47.6805 32.821C45.721 34.2737 43.1084 35 39.9613 35C36.1611 35 33.311 34.0921 31.3515 32.3217Z" fill="#3A5E68"/>
<path d="M75.1725 21.5175C73.985 19.9741 72.5005 18.5214 70.4817 17.2049L62.8813 12.1206C61.8125 11.4397 61.0406 10.7134 60.5655 10.0324C60.1499 9.35149 59.9124 8.48898 59.9124 7.44488C59.9124 6.2192 60.328 5.26589 61.1593 4.63035C62.05 3.99481 63.2376 3.67704 64.8408 3.67704C66.9784 3.67704 68.4628 4.22179 69.2941 5.31128C70.1254 6.40078 70.6004 7.94423 70.7786 9.94163L76.1226 8.85214C75.7663 5.81064 74.6381 3.58625 72.8568 2.13359C71.1348 0.726329 68.4628 0 64.8408 0C61.575 0 59.0217 0.680934 57.1216 2.0428C55.5184 3.17769 54.6277 4.76654 54.3902 6.76394C54.3902 7.1725 54.3309 7.53567 54.3309 7.94423C54.3309 8.44358 54.3309 8.89754 54.3902 9.3061C54.5684 10.3956 54.9246 11.3489 55.3997 12.2114C56.1122 13.3917 57.181 14.4812 58.7248 15.4799L66.2658 20.5642C67.9878 21.6991 69.1753 22.6978 70.0066 23.6511C70.7785 24.6044 71.1942 25.7393 71.1942 27.1466C71.1942 28.4176 70.7785 29.4163 69.9473 30.1427C69.116 30.8236 67.869 31.1414 66.2658 31.1414C64.0688 31.1414 62.525 30.4604 61.575 29.144C60.6249 27.7821 60.0905 26.0117 59.9124 23.7873L54.4496 24.9676L54.2715 25.013C54.2715 25.5577 54.3902 26.1025 54.4496 26.6018C54.8059 28.5538 55.5778 30.1881 56.7654 31.5499C57.0029 31.8223 57.2404 32.0947 57.5373 32.3217C59.4967 34.0921 62.3469 35 66.1471 35C66.3846 35 66.6221 35 66.8596 35C69.7097 34.9092 72.0849 34.1829 73.8662 32.821C75.8851 31.3684 76.8945 29.3709 76.8945 26.8288C76.8945 24.8314 76.3007 23.061 75.1725 21.5175Z" fill="#3A5E68"/>
</svg>
