<svg width="84" height="83" viewBox="0 0 84 83" fill="none" xmlns="http://www.w3.org/2000/svg">
<path d="M16.043 70.5526L10.2174 5.1875H74.2519L68.4186 70.5422L42.1957 77.8125L16.043 70.5526Z" fill="#1572B6"/>
<path d="M42.2346 72.2569L63.4256 66.382L68.4107 10.5334H42.2346V72.2569Z" fill="#33A9DC"/>
<path d="M42.2346 34.2142H52.8431L53.5745 26.005H42.2346V17.9877H62.3362L62.1442 20.1379L60.1756 42.2315H42.2346V34.2142Z" fill="white"/>
<path d="M42.2838 55.0342L42.2475 55.0446L33.3198 52.6324L32.7492 46.2388H24.7008L25.8239 58.8263L42.2449 63.3861L42.2838 63.3757V55.0342Z" fill="#EBEBEB"/>
<path d="M52.1609 41.8917L51.196 52.6272L42.2554 55.0394V63.3809L58.6894 58.8263L58.8113 57.4724L60.2041 41.8917H52.1609Z" fill="white"/>
<path d="M42.2632 17.9877V26.005H22.8983L22.7375 24.2023L22.3717 20.1379L22.1798 17.9877H42.2632ZM42.2347 34.2142V42.2315H33.4185L33.2577 40.4288L32.8946 36.3644L32.7027 34.2142H42.2347Z" fill="#EBEBEB"/>
</svg>
