<svg width="49" height="73" viewBox="0 0 49 73" fill="none" xmlns="http://www.w3.org/2000/svg">
<g clip-path="url(#clip0_150_543)">
<path d="M12.4093 73.0885C19.1209 73.0885 24.5679 67.6415 24.5679 60.9299V48.7713H12.4093C5.69779 48.7713 0.250732 54.2184 0.250732 60.9299C0.250732 67.6415 5.69779 73.0885 12.4093 73.0885Z" fill="#0ACF83"/>
<path d="M0.250732 36.6128C0.250732 29.9013 5.69779 24.4542 12.4093 24.4542H24.5679V48.7714H12.4093C5.69779 48.7714 0.250732 43.3244 0.250732 36.6128Z" fill="#A259FF"/>
<path d="M0.250732 12.2956C0.250732 5.58402 5.69779 0.136963 12.4093 0.136963H24.5679V24.4542H12.4093C5.69779 24.4542 0.250732 19.0071 0.250732 12.2956Z" fill="#F24E1E"/>
<path d="M24.568 0.136963H36.7266C43.4381 0.136963 48.8852 5.58402 48.8852 12.2956C48.8852 19.0071 43.4381 24.4542 36.7266 24.4542H24.568V0.136963Z" fill="#FF7262"/>
<path d="M48.8852 36.6128C48.8852 43.3244 43.4381 48.7714 36.7266 48.7714C30.015 48.7714 24.568 43.3244 24.568 36.6128C24.568 29.9013 30.015 24.4542 36.7266 24.4542C43.4381 24.4542 48.8852 29.9013 48.8852 36.6128Z" fill="#1ABCFE"/>
</g>
<defs>
<clipPath id="clip0_150_543">
<rect width="48.6344" height="72.9516" fill="white" transform="translate(0.250732 0.136963)"/>
</clipPath>
</defs>
</svg>
