<svg width="33" height="28" viewBox="0 0 33 28" fill="none" xmlns="http://www.w3.org/2000/svg">
<path d="M16.0048 27.1653C15.75 27.1653 15.5012 27.1337 15.2586 27.0705C15.017 27.0063 14.7815 26.9105 14.5521 26.783L6.90639 22.6543C6.39668 22.374 6.00165 21.9983 5.7213 21.5274C5.44096 21.0554 5.30079 20.5263 5.30079 19.9401V12.6002L1.63084 10.5741C1.35049 10.4212 1.14661 10.23 1.01918 10.0007C0.891748 9.77129 0.828033 9.51643 0.828033 9.23608C0.828033 8.95574 0.891748 8.70088 1.01918 8.47151C1.14661 8.24214 1.35049 8.051 1.63084 7.89808L14.5521 0.864007C14.7815 0.736578 15.017 0.640751 15.2586 0.576527C15.5012 0.513322 15.75 0.48172 16.0048 0.48172C16.2597 0.48172 16.5084 0.513322 16.751 0.576527C16.9926 0.640751 17.2281 0.736578 17.4575 0.864007L32.0226 8.81557C32.2775 8.943 32.4753 9.12751 32.6159 9.36912C32.7556 9.61174 32.8254 9.87323 32.8254 10.1536V19.9401C32.8254 20.3734 32.6786 20.7363 32.385 21.0289C32.0925 21.3225 31.7295 21.4693 31.2963 21.4693C30.863 21.4693 30.5001 21.3225 30.2075 21.0289C29.9139 20.7363 29.7671 20.3734 29.7671 19.9401V10.9181L26.7088 12.6002V19.9401C26.7088 20.5263 26.5687 21.0554 26.2883 21.5274C26.008 21.9983 25.613 22.374 25.1032 22.6543L17.4575 26.783C17.2281 26.9105 16.9926 27.0063 16.751 27.0705C16.5084 27.1337 16.2597 27.1653 16.0048 27.1653ZM16.0048 14.8939L26.4795 9.23608L16.0048 3.57824L5.53016 9.23608L16.0048 14.8939ZM16.0048 24.107L23.6505 19.9783V14.2058L17.4957 17.6082C17.2664 17.7356 17.0242 17.8309 16.7694 17.8941C16.5145 17.9583 16.2597 17.9904 16.0048 17.9904C15.75 17.9904 15.4951 17.9583 15.2402 17.8941C14.9854 17.8309 14.7433 17.7356 14.5139 17.6082L8.35908 14.2058V19.9783L16.0048 24.107Z" fill="#E7F6F2"/>
</svg>
