<svg width="75" height="74" viewBox="0 0 75 74" fill="none" xmlns="http://www.w3.org/2000/svg">
<path fill-rule="evenodd" clip-rule="evenodd" d="M37.3877 0.930725C16.731 0.930725 0 17.6617 0 38.3184C0 54.8625 10.7022 68.8361 25.5638 73.79C27.4332 74.1172 28.1342 72.9955 28.1342 72.0141C28.1342 71.1261 28.0875 68.1819 28.0875 65.0506C18.6939 66.7798 16.2637 62.7606 15.5159 60.6576C15.0953 59.5827 13.2726 56.2645 11.6837 55.3766C10.3751 54.6756 8.5057 52.9464 11.6369 52.8996C14.5812 52.8529 16.6843 55.6102 17.3853 56.7319C20.7502 62.3868 26.1247 60.7978 28.2745 59.8164C28.6016 57.3862 29.583 55.7504 30.6579 54.8158C22.3392 53.8811 13.6465 50.6564 13.6465 36.3556C13.6465 32.2897 15.0953 28.9248 17.4788 26.3076C17.1049 25.3729 15.7963 21.5407 17.8526 16.3999C17.8526 16.3999 20.9839 15.4185 28.1342 20.2321C31.1253 19.3909 34.3032 18.9703 37.4812 18.9703C40.6591 18.9703 43.8371 19.3909 46.8281 20.2321C53.9785 15.3717 57.1097 16.3999 57.1097 16.3999C59.166 21.5407 57.8575 25.3729 57.4836 26.3076C59.8671 28.9248 61.3158 32.2429 61.3158 36.3556C61.3158 50.7031 52.5765 53.8811 44.2577 54.8158C45.613 55.9841 46.7814 58.2274 46.7814 61.7325C46.7814 66.7331 46.7346 70.7523 46.7346 72.0141C46.7346 72.9955 47.4357 74.1639 49.305 73.79C56.7271 71.2842 63.1764 66.514 67.7455 60.1509C72.3145 53.7878 74.7732 46.152 74.7754 38.3184C74.7754 17.6617 58.0444 0.930725 37.3877 0.930725Z" fill="#E7F6F2"/>
</svg>
