<svg width="29" height="29" viewBox="0 0 29 29" fill="none" xmlns="http://www.w3.org/2000/svg">
<path d="M27.558 24.8601V14.9563C27.5581 14.2672 27.4175 13.5855 27.1448 12.9527C26.8722 12.3199 26.4732 11.7494 25.9724 11.2762L16.6418 2.4582C16.1719 2.01391 15.5497 1.76637 14.903 1.76637C14.2563 1.76637 13.6342 2.01391 13.1642 2.4582L3.83369 11.2762C3.33283 11.7494 2.93386 12.3199 2.6612 12.9527C2.38854 13.5855 2.24794 14.2672 2.24802 14.9563V24.8601C2.24802 25.5314 2.51467 26.1751 2.98933 26.6498C3.46398 27.1244 4.10775 27.3911 4.77902 27.3911H25.027C25.6983 27.3911 26.3421 27.1244 26.8167 26.6498C27.2914 26.1751 27.558 25.5314 27.558 24.8601Z" stroke="#E7F6F2" stroke-width="2.531" stroke-linecap="round" stroke-linejoin="round"/>
</svg>
