<svg width="102" height="35" viewBox="0 0 102 35" fill="none" xmlns="http://www.w3.org/2000/svg">
<path d="M0 0H4.75785V15H13.5939V0H18.3517V34.6789H13.5939V18.4404H4.75785V34.6789H0V0Z" fill="#3A5E68"/>
<path d="M27.5049 3.57798H21.7048V0H37.8815V3.57798H32.2627V34.633H27.5049V3.57798Z" fill="#3A5E68"/>
<path d="M41.7333 0H46.4458L52.4724 28.1193L58.5443 0H63.2116L63.8459 34.6789H59.9943L59.6318 9.49541L53.8318 34.6789H51.113L45.3583 9.49541L44.9958 34.6789H41.0989L41.7333 0Z" fill="#3A5E68"/>
<path d="M69.1022 0H73.86V31.1927H82.6054V34.6789H69.0569V0H69.1022Z" fill="#3A5E68"/>
<path d="M100.323 14.9541C99.2352 13.1651 97.3321 12.2477 94.7039 12.2477C92.6195 12.2477 90.9883 12.8899 89.7648 14.1743L90.0367 4.58716H100.685V0H85.9132V18.578H89.7648C90.1273 17.7523 90.6258 17.0642 91.3055 16.5138C91.9852 15.9633 92.7102 15.6881 93.6164 15.6881C94.7039 15.6881 95.5649 15.9633 96.0633 16.5138C96.6071 17.0642 97.0149 17.8899 97.1508 18.8991C97.3321 19.9083 97.4227 21.3303 97.4227 23.0734C97.4227 24.9541 97.3321 26.4679 97.1962 27.6147C97.0602 28.7156 96.6977 29.633 96.1086 30.3211C95.5649 31.0092 94.7039 31.3303 93.5258 31.3303C91.9852 31.3303 90.9883 30.7339 90.4898 29.5872C89.9914 28.4404 89.7195 26.8807 89.7195 24.9541H85.1882C85.1882 28.2569 85.8226 30.7798 87.1367 32.4771C88.0883 33.7156 89.493 34.4954 91.3055 34.8624C91.9852 34.9541 92.7102 35.0459 93.4805 35.0459C94.2055 35.0459 94.8852 35 95.4743 34.8624C97.5586 34.4954 99.0993 33.4404 100.051 31.7431C101.32 29.5413 101.954 26.4679 101.954 22.5229C101.999 19.3119 101.456 16.7431 100.323 14.9541Z" fill="#3A5E68"/>
</svg>
