<svg width="73" height="74" viewBox="0 0 73 74" fill="none" xmlns="http://www.w3.org/2000/svg">
<g clip-path="url(#clip0_150_442)">
<path d="M40.1388 17.4967C38.2299 12.8521 38.4974 7.62696 41.2544 3.42312L43.3152 0.471619C39.5035 7.6148 43.1329 16.3872 48.969 20.9862C50.5307 22.2085 52.2716 23.1825 54.1303 23.8739C54.6288 24.0563 55.1942 24.2508 55.7109 24.3815C62.234 26.0229 67.5504 24.8891 70.7147 20.1594C70.6174 20.3053 70.4928 20.5364 70.3347 20.8282C68.9243 23.4423 64.7965 31.0931 52.8263 28.6917C52.5983 28.6461 52.3795 28.5702 52.1606 28.5002L51.9661 28.4334L51.8263 28.3878C51.7618 28.3655 51.6969 28.3442 51.6317 28.3239C51.4544 28.2629 51.2781 28.1991 51.1028 28.1324C46.285 26.2965 42.1541 22.4301 40.1388 17.4967Z" fill="#21759B"/>
<path d="M24.3903 9.48706C19.7184 16.4631 19.9737 25.8039 23.6182 33.1842C24.2921 34.5575 25.0663 35.8793 25.9344 37.1388C26.5697 38.0902 27.2689 39.1449 28.0865 39.8805C28.4239 40.2666 28.7765 40.6404 29.1352 41.0082L29.3419 41.221L29.4118 41.2909C29.7747 41.6578 30.1467 42.0156 30.5274 42.3639L30.5304 42.367L30.5365 42.373C30.9959 42.7888 31.4673 43.1912 31.9499 43.5798L32.0715 43.6771C32.4971 44.0175 32.9317 44.3519 33.3785 44.671L33.3968 44.6832L33.4181 44.6984C33.5609 44.8017 33.7068 44.902 33.8527 44.9993L34.0138 45.1087C34.1092 45.1719 34.2035 45.2367 34.2965 45.3033C34.6157 45.516 34.9379 45.7197 35.2662 45.9203L35.3574 45.972L35.403 46.0024C35.755 46.2123 36.1107 46.416 36.4699 46.6134L36.5641 46.662L36.6857 46.7289C36.8438 46.814 37.0018 46.9021 37.166 46.9842L37.2571 47.0298C37.7273 47.2692 38.2037 47.4962 38.6858 47.7107L38.783 47.7502C39.2355 47.9494 39.6926 48.1379 40.1539 48.3156L40.2451 48.349C40.5582 48.4706 40.8713 48.58 41.1874 48.6894L41.3455 48.7442L41.613 48.8323C41.7315 48.8688 41.8501 48.9113 41.9656 48.9509C42.2969 49.0664 42.6282 49.1788 42.9747 49.2396C67.0913 53.3857 72.66 34.1143 72.66 34.1143C67.6415 41.6162 57.9207 45.1969 47.5494 42.4004C47.0902 42.2749 46.6341 42.138 46.1816 41.9901C46.0591 41.9523 45.9375 41.9117 45.8168 41.8685L45.7712 41.8533C45.4509 41.7458 45.1327 41.6323 44.8168 41.5128L44.8076 41.5067C44.2831 41.3083 43.7642 41.0954 43.2513 40.8684L43.0811 40.7924C42.4835 40.5222 41.8955 40.2313 41.3181 39.92L41.1905 39.8532L40.8257 39.6586C40.4927 39.4726 40.1633 39.28 39.8378 39.0811C39.1948 38.6885 38.5662 38.2728 37.9532 37.8348C37.5105 37.5153 37.0757 37.1848 36.6492 36.8439L36.5428 36.7558C36.4807 36.7055 36.4189 36.6548 36.3574 36.6038C31.8162 32.8833 28.2172 27.7979 26.5089 22.0347C24.7155 16.0527 25.1016 9.34116 28.2081 3.8941L24.3903 9.48706Z" fill="#21759B"/>
<path d="M4.34094 17.6057C-2.11528 27.2414 -1.31281 39.7799 3.62054 50.0175C3.71173 50.2151 3.81204 50.4096 3.90931 50.6011L3.98226 50.747L4.07345 50.9264C4.1499 51.0857 4.231 51.2429 4.31662 51.3975L4.35614 51.4735L4.56891 51.8686L4.61451 51.9507C4.76649 52.2304 4.92455 52.51 5.08565 52.7897L5.13733 52.8809C5.38092 53.3057 5.63532 53.7243 5.90028 54.1362L5.95499 54.2274L6.13433 54.5101C6.38966 54.9053 6.65107 55.3034 6.92464 55.6956V55.6986C6.93112 55.7082 6.93822 55.7173 6.94592 55.726L7.01887 55.8263L7.07966 55.9114C7.31676 56.2457 7.55689 56.5801 7.8031 56.9084L8.07667 57.2671C8.67248 58.0392 9.28873 58.7953 9.92478 59.5346L9.94302 59.5559L9.95821 59.5711L9.97949 59.5954C10.6244 60.3219 11.2914 61.0285 11.9796 61.7141L12.0708 61.8053L12.2866 62.018C12.6311 62.3547 12.9817 62.6851 13.3383 63.009L13.4386 63.1002L13.5176 63.167C13.8981 63.5067 14.2831 63.841 14.6727 64.1701L14.8429 64.313C15.1013 64.5257 15.3627 64.7385 15.6272 64.9452L16.0436 65.2765C16.3354 65.4984 16.6272 65.7173 16.9221 65.9301L16.9707 65.9666L17.2443 66.1672L17.3294 66.228C17.5969 66.4225 17.8674 66.6049 18.141 66.7872L18.1835 66.8176C18.3062 66.9002 18.4278 66.9843 18.5483 67.0699C19.0557 67.403 19.5695 67.7263 20.0894 68.0396L20.2535 68.1369C20.7138 68.4087 21.1789 68.6722 21.6487 68.9272L21.8098 69.0153L21.9892 69.1126C22.1685 69.2099 22.3448 69.3071 22.5272 69.4013L22.6032 69.4378L22.6944 69.4834L22.7977 69.5351C22.8585 69.5655 22.9223 69.5959 22.9862 69.6324C23.3631 69.8178 23.74 70.0002 24.123 70.1795L24.2659 70.2433L24.3631 70.2889C25.313 70.7215 26.2793 71.117 27.2599 71.4744L27.2903 71.4835L27.418 71.5321C28.1109 71.7814 28.8103 72.0125 29.5153 72.2252C29.8679 72.3437 30.2236 72.4592 30.5883 72.5291C61.8268 78.4443 70.9002 53.045 70.9002 53.045C63.2798 63.3494 49.7533 66.0699 36.9351 63.0424C36.4528 62.9254 35.9761 62.7864 35.5065 62.626L35.1478 62.5135C34.6858 62.3676 34.2268 62.2095 33.7708 62.0484L33.5824 61.9785C33.172 61.8265 32.7708 61.6746 32.3665 61.5104L32.0261 61.3706C31.5859 61.1902 31.1492 61.0017 30.716 60.8052L30.5762 60.7444C30.1643 60.5532 29.7549 60.3566 29.3482 60.1547L29.2235 60.0879C29.1585 60.0569 29.0936 60.0255 29.029 59.9936L28.3785 59.6501L28.1718 59.5407C28.1042 59.5038 28.0363 59.4673 27.9681 59.4313L27.6034 59.2307C27.2569 59.0392 26.9164 58.8355 26.576 58.6319L26.4453 58.5559L26.2325 58.4343C25.7034 58.1078 25.1805 57.7714 24.664 57.4251L24.5333 57.3339C23.2361 56.469 21.9926 55.526 20.8098 54.5101C20.4484 54.2045 20.0917 53.8934 19.7398 53.5769L19.6912 53.5313C19.2291 53.1063 18.7751 52.6726 18.3294 52.2304C18.072 51.9761 17.8187 51.7177 17.5695 51.4553L17.4662 51.3519C17.0725 50.9405 16.6874 50.5209 16.3111 50.0935L16.2928 50.0753L16.2868 50.0661C15.9646 49.7014 15.6484 49.3245 15.3384 48.9475L15.0891 48.6405C14.7709 48.2459 14.4598 47.8456 14.156 47.4399C13.8885 47.0751 13.624 46.7164 13.3657 46.3486C6.25288 36.2752 3.69653 22.378 9.38372 10.9671L4.34094 17.6057Z" fill="#21759B"/>
</g>
<defs>
<clipPath id="clip0_150_442">
<rect width="72.9516" height="72.9516" fill="white" transform="translate(-0.291626 0.471558)"/>
</clipPath>
</defs>
</svg>
