<svg width="32" height="32" viewBox="0 0 32 32" fill="none" xmlns="http://www.w3.org/2000/svg">
<path d="M29.1133 0.375H2.88672C1.5 0.375 0.375 1.5 0.375 2.88672V29.1133C0.375 30.5 1.5 31.625 2.88672 31.625H29.1133C30.5 31.625 31.625 30.5 31.625 29.1133V2.88672C31.625 1.5 30.5 0.375 29.1133 0.375ZM29.1133 29.125C11.6211 29.1211 2.875 29.1172 2.875 29.1133C2.87891 11.6211 2.88281 2.875 2.88672 2.875C20.3789 2.87891 29.125 2.88281 29.125 2.88672C29.1211 20.3789 29.1172 29.125 29.1133 29.125ZM5.00781 12.0898H9.64453V27.0039H5.00781V12.0898ZM7.32812 10.0508C8.80859 10.0508 10.0156 8.84766 10.0156 7.36328C10.0156 7.01035 9.94611 6.66088 9.81105 6.33482C9.67599 6.00876 9.47803 5.71249 9.22847 5.46293C8.97892 5.21337 8.68265 5.01541 8.35659 4.88035C8.03052 4.7453 7.68105 4.67578 7.32812 4.67578C6.9752 4.67578 6.62573 4.7453 6.29966 4.88035C5.9736 5.01541 5.67733 5.21337 5.42778 5.46293C5.17822 5.71249 4.98026 6.00876 4.8452 6.33482C4.71014 6.66088 4.64062 7.01035 4.64062 7.36328C4.63672 8.84766 5.83984 10.0508 7.32812 10.0508ZM17.1836 19.625C17.1836 17.6797 17.5547 15.7969 19.9648 15.7969C22.3398 15.7969 22.375 18.0195 22.375 19.75V27.0039H27.0078V18.8242C27.0078 14.8086 26.1406 11.7188 21.4492 11.7188C19.1953 11.7188 17.6836 12.957 17.0625 14.1289H17V12.0898H12.5508V27.0039H17.1836V19.625Z" fill="#ACCFD0"/>
</svg>
