<svg width="30" height="27" viewBox="0 0 30 27" fill="none" xmlns="http://www.w3.org/2000/svg">
<g clip-path="url(#clip0_77_1156)">
<path fill-rule="evenodd" clip-rule="evenodd" d="M23.642 4.98193C16.8085 -2.98151 3.73065 1.40392 2.47363 11.1931L6.20499 11.1871C7.33001 5.79678 15.2106 1.3667 21.0416 7.53567L23.642 4.98193Z" fill="#A3C8C8"/>
<path d="M12.7082 18.3754H9.65723V25.3121H12.7082V18.3754Z" fill="#A3C8C8"/>
<path d="M11.0754 14.9219C12.0966 14.9204 12.9233 14.0914 12.9219 13.0702C12.9205 12.049 12.0914 11.2223 11.0702 11.2238C10.049 11.2252 9.22235 12.0542 9.22377 13.0754C9.2252 14.0966 10.0542 14.9233 11.0754 14.9219Z" fill="#A3C8C8"/>
<path d="M12.7082 18.3754H9.65723V25.3121H12.7082V18.3754Z" fill="#A3C8C8"/>
<path fill-rule="evenodd" clip-rule="evenodd" d="M6.2035 11.1871C7.33001 5.79678 15.2106 1.3667 21.0416 7.53567L23.6415 4.98193C16.8085 -2.98151 3.73065 1.40392 2.47363 11.1931L6.2035 11.1871Z" fill="#A3C8C8"/>
<path fill-rule="evenodd" clip-rule="evenodd" d="M6.2035 11.1871C7.33001 5.79678 15.2106 1.3667 21.0416 7.53567L23.6415 4.98193C16.8085 -2.98151 3.73065 1.40392 2.47363 11.1931L6.2035 11.1871Z" fill="#A3C8C8"/>
<path fill-rule="evenodd" clip-rule="evenodd" d="M6.2035 11.1871C7.33001 5.79678 15.2106 1.3667 21.0416 7.53567L23.6415 4.98193C16.8085 -2.98151 3.73065 1.40392 2.47363 11.1931L6.2035 11.1871Z" fill="#A3C8C8"/>
<path d="M12.9226 13.08C12.9264 12.0588 12.1016 11.228 11.0804 11.2242C10.0592 11.2205 9.22829 12.0453 9.22455 13.0665C9.22081 14.0877 10.0456 14.9186 11.0668 14.9223C12.088 14.926 12.9189 14.1012 12.9226 13.08Z" fill="#A3C8C8"/>
<path d="M12.7082 18.3754H9.65723V25.3121H12.7082V18.3754Z" fill="#A3C8C8"/>
<path d="M12.9211 13.0747C12.9228 12.0535 12.0964 11.2242 11.0752 11.2224C10.054 11.2206 9.22474 12.047 9.22295 13.0682C9.22117 14.0894 10.0476 14.9187 11.0688 14.9205C12.09 14.9223 12.9193 14.0959 12.9211 13.0747Z" fill="#A3C8C8"/>
<path d="M12.7082 18.3754H9.65723V25.3121H12.7082V18.3754Z" fill="#A3C8C8"/>
<path fill-rule="evenodd" clip-rule="evenodd" d="M6.2035 11.1871C7.33001 5.79678 15.2106 1.3667 21.0416 7.53567L23.6415 4.98193C16.8085 -2.98151 3.73065 1.40392 2.47363 11.1931L6.2035 11.1871Z" fill="#A3C8C8"/>
<path d="M12.7082 18.3754H9.65723V25.3121H12.7082V18.3754Z" fill="#A3C8C8"/>
<path d="M12.9226 13.08C12.9264 12.0588 12.1016 11.228 11.0804 11.2242C10.0592 11.2205 9.22829 12.0453 9.22455 13.0665C9.22081 14.0877 10.0456 14.9186 11.0668 14.9223C12.088 14.926 12.9189 14.1012 12.9226 13.08Z" fill="#A3C8C8"/>
<path fill-rule="evenodd" clip-rule="evenodd" d="M23.8724 14.9398C22.5851 19.3734 19.5788 21.68 14.6917 21.6567L14.6748 25.3225L15.9963 25.3161C18.4151 25.2168 20.4428 24.6868 22.3544 23.2616C23.3965 22.5306 26.9343 20.2721 27.7184 14.3716C27.7914 13.324 27.7085 12.2764 27.7035 11.2288L15.5661 11.1931V14.9418L23.8724 14.9398Z" fill="#E8F5F1"/>
<path fill-rule="evenodd" clip-rule="evenodd" d="M6.2035 11.1871C7.33001 5.79678 15.2106 1.3667 21.0416 7.53567L23.6415 4.98193C16.8085 -2.98151 3.73065 1.40392 2.47363 11.1931L6.2035 11.1871Z" fill="#E8F5F1"/>
<path d="M12.7082 18.3754H9.65723V25.3121H12.7082V18.3754Z" fill="#ACCED0"/>
<path d="M12.9226 13.08C12.9264 12.0588 12.1016 11.228 11.0804 11.2242C10.0592 11.2205 9.22829 12.0453 9.22455 13.0665C9.22081 14.0877 10.0456 14.9186 11.0668 14.9223C12.088 14.926 12.9189 14.1012 12.9226 13.08Z" fill="#ACCED0"/>
</g>
<defs>
<clipPath id="clip0_77_1156">
<rect width="29.5412" height="26.5607" fill="white"/>
</clipPath>
</defs>
</svg>
