<svg width="38" height="34" viewBox="0 0 38 34" fill="none" xmlns="http://www.w3.org/2000/svg">
<g clip-path="url(#clip0_246_565)">
<path fill-rule="evenodd" clip-rule="evenodd" d="M30.1047 6.59717C21.4569 -3.48057 4.90688 2.06919 3.31612 14.4574L8.03815 14.4499C9.46186 7.62836 19.4347 2.02209 26.8139 9.82893L30.1047 6.59717Z" fill="#A3C8C8"/>
<path d="M16.2681 23.5466H12.4071V32.325H16.2681V23.5466Z" fill="#A3C8C8"/>
<path d="M14.2018 19.1761C15.4941 19.1743 16.5403 18.1252 16.5385 16.8329C16.5367 15.5406 15.4876 14.4944 14.1952 14.4962C12.9029 14.498 11.8567 15.5471 11.8585 16.8394C11.8603 18.1318 12.9094 19.1779 14.2018 19.1761Z" fill="#A3C8C8"/>
<path d="M16.2681 23.5466H12.4071V32.325H16.2681V23.5466Z" fill="#A3C8C8"/>
<path fill-rule="evenodd" clip-rule="evenodd" d="M8.03627 14.4499C9.46186 7.62836 19.4347 2.02209 26.8139 9.82893L30.104 6.59717C21.4569 -3.48057 4.90688 2.06919 3.31612 14.4574L8.03627 14.4499Z" fill="#A3C8C8"/>
<path fill-rule="evenodd" clip-rule="evenodd" d="M8.03627 14.4499C9.46186 7.62836 19.4347 2.02209 26.8139 9.82893L30.104 6.59717C21.4569 -3.48057 4.90688 2.06919 3.31612 14.4574L8.03627 14.4499Z" fill="#A3C8C8"/>
<path fill-rule="evenodd" clip-rule="evenodd" d="M8.03627 14.4499C9.46186 7.62836 19.4347 2.02209 26.8139 9.82893L30.104 6.59717C21.4569 -3.48057 4.90688 2.06919 3.31612 14.4574L8.03627 14.4499Z" fill="#A3C8C8"/>
<path d="M16.5393 16.8453C16.544 15.553 15.5002 14.5015 14.2079 14.4968C12.9156 14.492 11.8641 15.5358 11.8594 16.8282C11.8546 18.1205 12.8984 19.172 14.1908 19.1767C15.4831 19.1814 16.5346 18.1377 16.5393 16.8453Z" fill="#A3C8C8"/>
<path d="M16.2681 23.5466H12.4071V32.325H16.2681V23.5466Z" fill="#A3C8C8"/>
<path d="M16.5376 16.8385C16.5399 15.5462 15.4941 14.4967 14.2017 14.4944C12.9094 14.4922 11.8599 15.538 11.8577 16.8303C11.8554 18.1227 12.9012 19.1721 14.1936 19.1744C15.4859 19.1767 16.5354 18.1308 16.5376 16.8385Z" fill="#A3C8C8"/>
<path d="M16.2681 23.5466H12.4071V32.325H16.2681V23.5466Z" fill="#A3C8C8"/>
<path fill-rule="evenodd" clip-rule="evenodd" d="M8.03627 14.4499C9.46186 7.62836 19.4347 2.02209 26.8139 9.82893L30.104 6.59717C21.4569 -3.48057 4.90688 2.06919 3.31612 14.4574L8.03627 14.4499Z" fill="#A3C8C8"/>
<path d="M16.2681 23.5466H12.4071V32.325H16.2681V23.5466Z" fill="#A3C8C8"/>
<path d="M16.5393 16.8453C16.544 15.553 15.5002 14.5015 14.2079 14.4968C12.9156 14.492 11.8641 15.5358 11.8594 16.8282C11.8546 18.1205 12.8984 19.172 14.1908 19.1767C15.4831 19.1814 16.5346 18.1377 16.5393 16.8453Z" fill="#A3C8C8"/>
<path fill-rule="evenodd" clip-rule="evenodd" d="M30.3966 19.1989C28.7675 24.8096 24.963 27.7286 18.7783 27.6991L18.757 32.3382L20.4294 32.33C23.4903 32.2044 26.0564 31.5337 28.4755 29.7301C29.7943 28.805 34.2714 25.9469 35.2637 18.4798C35.356 17.1541 35.2511 15.8283 35.2449 14.5026L19.8849 14.4574V19.2014L30.3966 19.1989Z" fill="#E8F5F1"/>
<path fill-rule="evenodd" clip-rule="evenodd" d="M8.03627 14.4499C9.46186 7.62836 19.4347 2.02209 26.8139 9.82893L30.104 6.59717C21.4569 -3.48057 4.90688 2.06919 3.31612 14.4574L8.03627 14.4499Z" fill="#E8F5F1"/>
<path d="M16.2681 23.5466H12.4071V32.325H16.2681V23.5466Z" fill="#ACCED0"/>
<path d="M16.5393 16.8453C16.544 15.553 15.5002 14.5015 14.2079 14.4968C12.9156 14.492 11.8641 15.5358 11.8594 16.8282C11.8546 18.1205 12.8984 19.172 14.1908 19.1767C15.4831 19.1814 16.5346 18.1377 16.5393 16.8453Z" fill="#ACCED0"/>
</g>
<defs>
<clipPath id="clip0_246_565">
<rect width="37.3844" height="33.6126" fill="white" transform="translate(0.186005 0.292526)"/>
</clipPath>
</defs>
</svg>
