<svg width="219" height="60" viewBox="0 0 219 60" fill="none" xmlns="http://www.w3.org/2000/svg">
<g clip-path="url(#clip0_77_1334)">
<path fill-rule="evenodd" clip-rule="evenodd" d="M54.2928 11.1707C38.5999 -6.68681 8.56678 3.14723 5.68005 25.0988L14.2491 25.0855C16.8326 12.998 34.9302 3.06377 48.3211 16.8973L54.2928 11.1707Z" fill="#A3C8C8"/>
<path d="M29.1838 41.2056H22.1773V56.7606H29.1838V41.2056Z" fill="#A3C8C8"/>
<path d="M25.4341 33.4618C27.7793 33.4586 29.6777 31.5996 29.6745 29.3096C29.6712 27.0196 27.7674 25.1658 25.4222 25.169C23.077 25.1722 21.1786 27.0312 21.1818 29.3212C21.1851 31.6112 23.0889 33.465 25.4341 33.4618Z" fill="#A3C8C8"/>
<path d="M29.1838 41.2056H22.1773V56.7606H29.1838V41.2056Z" fill="#A3C8C8"/>
<path fill-rule="evenodd" clip-rule="evenodd" d="M14.2456 25.0855C16.8326 12.998 34.9302 3.06377 48.321 16.8973L54.2917 11.1707C38.5999 -6.68681 8.56678 3.14723 5.68005 25.0988L14.2456 25.0855Z" fill="#A3C8C8"/>
<path fill-rule="evenodd" clip-rule="evenodd" d="M14.2456 25.0855C16.8326 12.998 34.9302 3.06377 48.321 16.8973L54.2917 11.1707C38.5999 -6.68681 8.56678 3.14723 5.68005 25.0988L14.2456 25.0855Z" fill="#A3C8C8"/>
<path fill-rule="evenodd" clip-rule="evenodd" d="M14.2456 25.0855C16.8326 12.998 34.9302 3.06377 48.321 16.8973L54.2917 11.1707C38.5999 -6.68681 8.56678 3.14723 5.68005 25.0988L14.2456 25.0855Z" fill="#A3C8C8"/>
<path d="M29.676 29.3313C29.6846 27.0413 27.7904 25.1781 25.4453 25.1697C23.1001 25.1613 21.192 27.0109 21.1834 29.3009C21.1748 31.5909 23.069 33.4541 25.4141 33.4625C27.7593 33.4709 29.6674 31.6213 29.676 29.3313Z" fill="#A3C8C8"/>
<path d="M29.1838 41.2056H22.1773V56.7606H29.1838V41.2056Z" fill="#A3C8C8"/>
<path d="M29.673 29.3197C29.6771 27.0298 27.7793 25.1701 25.4341 25.1661C23.0889 25.1621 21.1845 27.0153 21.1804 29.3053C21.1763 31.5953 23.0741 33.4549 25.4193 33.4589C27.7645 33.4629 29.6689 31.6097 29.673 29.3197Z" fill="#A3C8C8"/>
<path d="M29.1838 41.2056H22.1773V56.7606H29.1838V41.2056Z" fill="#A3C8C8"/>
<path fill-rule="evenodd" clip-rule="evenodd" d="M14.2456 25.0855C16.8326 12.998 34.9302 3.06377 48.321 16.8973L54.2917 11.1707C38.5999 -6.68681 8.56678 3.14723 5.68005 25.0988L14.2456 25.0855Z" fill="#A3C8C8"/>
<path d="M29.1838 41.2056H22.1773V56.7606H29.1838V41.2056Z" fill="#A3C8C8"/>
<path d="M29.676 29.3313C29.6846 27.0413 27.7904 25.1781 25.4453 25.1697C23.1001 25.1613 21.192 27.0109 21.1834 29.3009C21.1748 31.5909 23.069 33.4541 25.4141 33.4625C27.7593 33.4709 29.6674 31.6213 29.676 29.3313Z" fill="#A3C8C8"/>
<path fill-rule="evenodd" clip-rule="evenodd" d="M54.8225 33.5014C51.8663 43.4434 44.9623 48.6158 33.7391 48.5635L33.7003 56.784L36.7352 56.7695C42.2898 56.547 46.9464 55.3585 51.3363 52.1624C53.7296 50.5232 61.8541 45.4588 63.6548 32.2273C63.8223 29.8781 63.632 27.5289 63.6206 25.1797L35.7471 25.0996V33.5059L54.8225 33.5014Z" fill="#E8F5F1"/>
<path fill-rule="evenodd" clip-rule="evenodd" d="M14.2456 25.0855C16.8326 12.998 34.9302 3.06377 48.321 16.8973L54.2917 11.1707C38.5999 -6.68681 8.56678 3.14723 5.68005 25.0988L14.2456 25.0855Z" fill="#E8F5F1"/>
<path d="M29.1838 41.2056H22.1773V56.7606H29.1838V41.2056Z" fill="#ACCED0"/>
<path d="M29.676 29.3313C29.6846 27.0413 27.7904 25.1781 25.4453 25.1697C23.1001 25.1613 21.192 27.0109 21.1834 29.3009C21.1748 31.5909 23.069 33.4541 25.4141 33.4625C27.7593 33.4709 29.6674 31.6213 29.676 29.3313Z" fill="#ACCED0"/>
</g>
<path d="M84.9873 23V2.17515H87.2116V23H84.9873ZM93.4117 19.1631C93.4117 19.8675 93.7083 20.4699 94.3015 20.9703C94.8946 21.4523 95.7102 21.6932 96.7482 21.6932C98.0642 21.6932 99.1856 21.2669 100.112 20.4143C101.058 19.5616 101.53 18.4773 101.53 17.1613V15.076C100.715 15.2799 99.4173 15.5208 97.6379 15.7989C96.1921 16.0584 95.1263 16.4569 94.4405 16.9944C93.7547 17.532 93.4117 18.2549 93.4117 19.1631ZM91.2431 19.3299C91.2431 16.5496 93.3932 14.8258 97.6935 14.1585C99.6212 13.8434 100.9 13.5839 101.53 13.38V12.5181C101.53 11.5913 101.197 10.822 100.529 10.2104C99.8622 9.59869 98.9168 9.29285 97.6935 9.29285C96.8038 9.29285 95.9419 9.50601 95.1078 9.93233C94.2922 10.3401 93.5971 10.8962 93.0225 11.6005L91.6323 10.4328C92.3737 9.58016 93.2635 8.88507 94.3015 8.34753C95.358 7.81 96.4701 7.54123 97.6379 7.54123C101.642 7.54123 103.643 9.49675 103.643 13.4078V23H101.586V20.5533C101.289 21.3503 100.678 22.0454 99.751 22.6386C98.8242 23.2132 97.7306 23.5005 96.4701 23.5005C94.8205 23.5005 93.5322 23.1112 92.6054 22.3327C91.6972 21.5542 91.2431 20.5533 91.2431 19.3299ZM109.121 15.2428C109.121 17.0037 109.51 18.431 110.288 19.5246C111.067 20.5996 112.086 21.1372 113.347 21.1372C114.626 21.1372 115.636 20.6182 116.377 19.5802C117.137 18.5422 117.517 17.0871 117.517 15.215C117.517 13.3985 117.128 11.9713 116.35 10.9333C115.59 9.87673 114.607 9.34846 113.402 9.34846C112.105 9.34846 111.067 9.90453 110.288 11.0167C109.51 12.1103 109.121 13.519 109.121 15.2428ZM106.952 15.2706C106.952 12.9537 107.527 11.0908 108.676 9.6821C109.825 8.25485 111.308 7.54123 113.124 7.54123C114.274 7.54123 115.21 7.8378 115.933 8.43094C116.674 9.02409 117.202 9.70991 117.517 10.4884V8.04169H119.63V21.2484C119.63 24.0843 119.121 26.1881 118.101 27.5598C117.1 28.95 115.497 29.645 113.291 29.645C110.9 29.645 109.047 28.7368 107.731 26.9203L109.232 25.9472C110.381 27.2447 111.753 27.8934 113.347 27.8934C114.663 27.8934 115.682 27.3744 116.405 26.3364C117.147 25.317 117.517 23.9453 117.517 22.2215V20.0806C117.128 20.9147 116.563 21.6006 115.821 22.1381C115.099 22.6756 114.218 22.9444 113.18 22.9444C111.289 22.9444 109.779 22.2308 108.648 20.8035C107.517 19.3577 106.952 17.5134 106.952 15.2706ZM125.33 15.5208C125.33 17.4115 125.766 18.9129 126.637 20.025C127.508 21.1372 128.592 21.6932 129.89 21.6932C131.169 21.6932 132.244 21.1372 133.115 20.025C134.005 18.9129 134.45 17.4115 134.45 15.5208C134.45 13.5931 134.005 12.0825 133.115 10.9889C132.225 9.89526 131.15 9.34846 129.89 9.34846C128.611 9.34846 127.527 9.89526 126.637 10.9889C125.766 12.0825 125.33 13.5931 125.33 15.5208ZM123.162 15.5208C123.162 13.241 123.745 11.341 124.913 9.82112C126.099 8.30119 127.758 7.54123 129.89 7.54123C132.003 7.54123 133.653 8.30119 134.839 9.82112C136.025 11.341 136.618 13.241 136.618 15.5208C136.618 16.4847 136.489 17.4208 136.229 18.329C135.988 19.2373 135.608 20.0899 135.089 20.8869C134.589 21.6654 133.884 22.2956 132.976 22.7776C132.086 23.2595 131.058 23.5005 129.89 23.5005C128.741 23.5005 127.712 23.2688 126.804 22.8054C125.914 22.3234 125.21 21.6932 124.691 20.9147C124.19 20.1177 123.81 19.2651 123.551 18.3568C123.291 17.4486 123.162 16.5032 123.162 15.5208Z" fill="#ACCFD0"/>
<path d="M83.5415 41.6015C83.5415 38.3763 84.3478 35.7535 85.9604 33.7331C87.5915 31.6941 89.8066 30.6747 92.6054 30.6747C93.5508 30.6747 94.4312 30.823 95.2468 31.1195C96.0624 31.3976 96.7389 31.7776 97.2764 32.2595C97.8325 32.7414 98.2866 33.2141 98.6388 33.6775C99.0095 34.1223 99.3154 34.595 99.5563 35.0954L97.6657 35.7627C96.3497 33.6311 94.6629 32.5653 92.6054 32.5653C90.4738 32.5653 88.8056 33.3994 87.6008 35.0676C86.4145 36.7173 85.8214 38.8953 85.8214 41.6015C85.8214 44.4189 86.4331 46.6246 87.6564 48.2187C88.8798 49.7943 90.4924 50.582 92.4942 50.582C94.3107 50.582 95.7102 49.9889 96.6926 48.8026C97.675 47.6163 98.1662 46.2169 98.1662 44.6043V42.658H92.2718V40.7674H100.335V52H98.7222L98.5554 48.9416C97.4618 51.3142 95.4229 52.5005 92.4386 52.5005C89.788 52.5005 87.6379 51.5273 85.9882 49.5811C84.3571 47.6348 83.5415 44.975 83.5415 41.6015ZM105.673 44.5208C105.673 46.4115 106.109 47.9129 106.98 49.025C107.851 50.1372 108.935 50.6932 110.233 50.6932C111.512 50.6932 112.587 50.1372 113.458 49.025C114.348 47.9129 114.793 46.4115 114.793 44.5208C114.793 42.5931 114.348 41.0825 113.458 39.9889C112.568 38.8953 111.493 38.3485 110.233 38.3485C108.954 38.3485 107.87 38.8953 106.98 39.9889C106.109 41.0825 105.673 42.5931 105.673 44.5208ZM103.504 44.5208C103.504 42.241 104.088 40.341 105.256 38.8211C106.442 37.3012 108.101 36.5412 110.233 36.5412C112.346 36.5412 113.996 37.3012 115.182 38.8211C116.368 40.341 116.961 42.241 116.961 44.5208C116.961 45.4847 116.832 46.4208 116.572 47.329C116.331 48.2373 115.951 49.0899 115.432 49.8869C114.932 50.6654 114.227 51.2956 113.319 51.7776C112.429 52.2595 111.401 52.5005 110.233 52.5005C109.084 52.5005 108.055 52.2688 107.147 51.8054C106.257 51.3234 105.553 50.6932 105.034 49.9147C104.533 49.1177 104.153 48.2651 103.894 47.3568C103.634 46.4486 103.504 45.5032 103.504 44.5208ZM120.409 52V37.0417H122.522V39.5996H122.55C122.772 38.8582 123.319 38.1631 124.19 37.5144C125.061 36.8656 126.099 36.5412 127.304 36.5412C128.694 36.5412 129.834 36.9768 130.724 37.848C131.632 38.7192 132.086 40.2113 132.086 42.3244V52H129.918V42.6858C129.918 39.7942 128.88 38.3485 126.804 38.3485C125.655 38.3485 124.663 38.8119 123.829 39.7386C122.995 40.6654 122.578 41.7776 122.578 43.0751V52H120.409ZM135.367 44.5208C135.367 42.1483 135.97 40.2298 137.175 38.7655C138.379 37.2827 140.001 36.5412 142.04 36.5412C143.375 36.5412 144.515 36.9305 145.46 37.709C146.424 38.4689 147.063 39.3772 147.378 40.4337L145.543 40.962C145.265 40.2206 144.811 39.5996 144.181 39.0992C143.569 38.5987 142.856 38.3485 142.04 38.3485C140.669 38.3485 139.575 38.9323 138.759 40.1001C137.944 41.2678 137.536 42.7414 137.536 44.5208C137.536 46.4115 137.962 47.9129 138.815 49.025C139.668 50.1372 140.743 50.6932 142.04 50.6932C142.911 50.6932 143.699 50.4152 144.403 49.8591C145.126 49.2845 145.636 48.6265 145.933 47.8851L147.768 48.4689C147.378 49.5811 146.665 50.5357 145.627 51.3327C144.607 52.1112 143.412 52.5005 142.04 52.5005C140.057 52.5005 138.444 51.7776 137.202 50.3318C135.979 48.886 135.367 46.949 135.367 44.5208ZM138.509 56.532C139.547 56.81 140.418 56.949 141.123 56.949C141.66 56.949 142.17 56.8285 142.652 56.5876C143.134 56.3466 143.375 56.013 143.375 55.5867C143.375 55.1233 143.069 54.7804 142.457 54.5579C141.864 54.3355 141.095 54.2428 140.15 54.2799L140.789 51.7776H142.735L142.29 53.3902C143.199 53.4643 143.894 53.696 144.376 54.0853C144.876 54.4931 145.126 55.0306 145.126 55.6979C145.126 56.4393 144.783 57.0695 144.098 57.5885C143.43 58.1075 142.457 58.367 141.178 58.367C140.307 58.367 139.417 58.228 138.509 57.95V56.532ZM151.771 48.1631C151.771 48.8675 152.068 49.4699 152.661 49.9703C153.254 50.4523 154.07 50.6932 155.108 50.6932C156.424 50.6932 157.545 50.2669 158.472 49.4143C159.417 48.5616 159.89 47.4773 159.89 46.1613V44.076C159.074 44.2799 157.777 44.5208 155.998 44.7989C154.552 45.0584 153.486 45.4569 152.8 45.9944C152.114 46.532 151.771 47.2549 151.771 48.1631ZM149.603 48.3299C149.603 45.5496 151.753 43.8258 156.053 43.1585C157.981 42.8434 159.26 42.5839 159.89 42.38V41.5181C159.89 40.5913 159.556 39.822 158.889 39.2104C158.222 38.5987 157.276 38.2929 156.053 38.2929C155.163 38.2929 154.302 38.506 153.467 38.9323C152.652 39.3401 151.957 39.8962 151.382 40.6005L149.992 39.4328C150.733 38.5802 151.623 37.8851 152.661 37.3475C153.718 36.81 154.83 36.5412 155.998 36.5412C160.001 36.5412 162.003 38.4967 162.003 42.4078V52H159.946V49.5533C159.649 50.3503 159.037 51.0454 158.111 51.6386C157.184 52.2132 156.09 52.5005 154.83 52.5005C153.18 52.5005 151.892 52.1112 150.965 51.3327C150.057 50.5542 149.603 49.5533 149.603 48.3299ZM166.646 52V30.3966H168.759V52H166.646ZM171.54 37.0417H173.931L177.156 46.4115C177.304 46.8749 177.508 47.5236 177.768 48.3577C178.027 49.1918 178.213 49.785 178.324 50.1372H178.379C178.509 49.7108 178.713 49.0899 178.991 48.2743C179.269 47.4588 179.473 46.8378 179.603 46.4115L182.772 37.0417H185.163L179.658 52H177.045L171.54 37.0417ZM186.276 44.4096C186.276 42.0741 186.906 40.1835 188.166 38.7377C189.427 37.2734 191.058 36.5412 193.06 36.5412C195.099 36.5412 196.702 37.2549 197.87 38.6821C199.037 40.0908 199.621 41.898 199.621 44.1038C199.621 44.3633 199.603 44.734 199.566 45.2159H188.444C188.444 46.7173 188.861 48.0056 189.695 49.0806C190.53 50.1557 191.688 50.6932 193.171 50.6932C194.135 50.6932 194.987 50.4708 195.729 50.0259C196.47 49.5626 197.045 48.9509 197.453 48.1909L199.288 48.747C198.824 49.8406 198.074 50.7396 197.036 51.4439C195.998 52.1483 194.709 52.5005 193.171 52.5005C191.095 52.5005 189.427 51.759 188.166 50.2762C186.906 48.7933 186.276 46.8378 186.276 44.4096ZM188.5 43.5755H197.453C197.453 42.1112 197.054 40.8786 196.257 39.8777C195.46 38.8582 194.394 38.3485 193.06 38.3485C191.707 38.3485 190.613 38.8675 189.779 39.9055C188.963 40.9435 188.537 42.1668 188.5 43.5755ZM201.79 49.0528L203.403 48.1075C204.496 49.8313 205.979 50.6932 207.851 50.6932C208.982 50.6932 209.881 50.4893 210.548 50.0816C211.234 49.6738 211.577 49.0806 211.577 48.3021C211.577 47.9685 211.493 47.6719 211.327 47.4124C211.16 47.1344 210.974 46.912 210.771 46.7451C210.585 46.5598 210.242 46.3651 209.742 46.1613C209.241 45.9388 208.824 45.7813 208.491 45.6886C208.176 45.5774 207.647 45.4013 206.906 45.1603C206.257 44.9564 205.701 44.7525 205.238 44.5487C204.774 44.3448 204.292 44.076 203.792 43.7423C203.291 43.3902 202.902 42.9638 202.624 42.4634C202.365 41.9629 202.235 41.3883 202.235 40.7396C202.235 39.4977 202.735 38.4875 203.736 37.709C204.737 36.9305 206.109 36.5412 207.851 36.5412C209.074 36.5412 210.196 36.8656 211.215 37.5144C212.235 38.1631 212.967 38.9231 213.412 39.7942L211.966 40.7396C211.577 40.0908 211.011 39.5347 210.27 39.0714C209.547 38.5894 208.741 38.3485 207.851 38.3485C206.72 38.3485 205.859 38.5709 205.265 39.0157C204.691 39.4421 204.403 40.0259 204.403 40.7674C204.403 41.1937 204.515 41.5829 204.737 41.9351C204.96 42.2688 205.293 42.5653 205.738 42.8248C206.201 43.0658 206.619 43.2604 206.989 43.4087C207.378 43.5385 207.888 43.7053 208.518 43.9092C209.056 44.076 209.529 44.2335 209.936 44.3818C210.363 44.5301 210.826 44.734 211.327 44.9935C211.827 45.253 212.244 45.531 212.578 45.8276C212.911 46.1056 213.189 46.4671 213.412 46.912C213.634 47.3383 213.745 47.8017 213.745 48.3021C213.745 49.4884 213.217 50.4893 212.161 51.3049C211.123 52.1019 209.686 52.5005 207.851 52.5005C206.517 52.5005 205.33 52.2039 204.292 51.6108C203.254 50.9991 202.42 50.1464 201.79 49.0528Z" fill="#E7F6F2"/>
<defs>
<clipPath id="clip0_77_1334">
<rect width="67.8409" height="59.5607" fill="white"/>
</clipPath>
</defs>
</svg>
