<svg width="143" height="73" viewBox="0 0 143 73" fill="none" xmlns="http://www.w3.org/2000/svg">
<path d="M35.185 2.47595C35.7006 1.59886 36.3711 0.756294 37.3345 0.343087C37.7299 0.27459 38.1253 0.309117 38.5207 0.309117H57.9876C57.4202 0.790263 56.87 1.28923 56.4919 1.94245C55.4945 3.57635 54.8234 5.39902 54.2047 7.2217C52.4506 12.7254 51.2293 18.3827 50.0426 24.0407C49.5077 26.6038 48.9976 29.1721 48.5123 31.7451C47.0332 40.1374 45.5029 48.5118 43.5939 56.8177C42.6828 60.6529 41.754 64.4876 40.3439 68.1848C39.6901 69.7156 39.0542 71.349 37.799 72.4839C37.5066 72.7423 37.2142 73.0686 36.801 73.0174H19.6045C18.435 72.9829 17.2829 73.0859 16.1134 72.9656C16.8875 72.3642 17.5752 71.6413 18.0224 70.7815C19.3121 68.3223 20.1202 65.6571 20.8942 63.0085C22.0982 58.7439 23.0605 54.4275 23.9727 50.1111C24.5402 47.2738 25.2106 44.4532 25.6233 41.5986C26.0877 38.4172 26.7927 35.2702 27.3602 32.106C28.2546 27.4455 29.2001 22.7855 30.2493 18.1594C31.0919 14.548 31.9517 10.9534 33.1039 7.42831C33.6719 5.72591 34.2901 4.04079 35.185 2.47595Z" fill="#EB7077" stroke="#EB7077" stroke-width="0.052347"/>
<path d="M57.9882 0.309247C58.4867 0.309247 58.9851 0.291984 59.484 0.309247C60.5844 0.893974 61.5133 1.8223 62.029 2.97449C62.7167 4.28149 63.2848 5.65755 63.7999 7.06757C65.5201 12.3813 66.6895 17.8499 67.859 23.3013C68.8558 28.1851 69.8025 33.0862 70.6963 38.0046C70.7654 38.2625 70.6796 38.6239 71.0232 38.6924C69.7847 45.1583 68.564 51.6416 67.0164 58.0563C66.1733 61.5129 65.279 64.9522 64.007 68.2885C63.3187 69.9563 62.6137 71.779 61.1519 72.9663C60.2236 73.1723 59.5525 72.4673 58.9856 71.8308C58.0055 70.5756 57.403 69.0965 56.8182 67.6174C54.8747 62.3215 53.6886 56.8011 52.4851 51.298C51.5735 47.0156 50.7649 42.6997 49.9224 38.4006C49.5437 36.2159 49.0286 34.0664 48.7362 31.8828C48.6844 31.8483 48.5636 31.7792 48.5123 31.7453C48.9976 29.1722 49.5077 26.604 50.0426 24.0408C51.2294 18.3829 52.4506 12.7249 54.2048 7.22239C54.8235 5.39915 55.4945 3.57648 56.4919 1.94314C56.8706 1.28936 57.4202 0.790394 57.9877 0.309247H57.9882Z" fill="#F6A2AD" stroke="#F6A2AD" stroke-width="0.052347"/>
<path d="M79.5006 3.28387C80.1204 2.09771 80.8766 0.773443 82.2182 0.326267C89.0456 0.29174 95.8729 0.309003 102.7 0.309003C102.063 0.944963 101.393 1.58148 100.962 2.38952C99.6386 4.76295 98.8645 7.39422 98.0737 9.99096C96.0445 17.1447 94.6172 24.4532 93.2584 31.7617C92.0032 38.9678 90.6616 46.1727 89.1313 53.3443C88.3405 56.9551 87.5147 60.5492 86.4661 64.1088C85.795 66.3102 85.0906 68.5288 83.9896 70.5753C83.4561 71.5037 82.8369 72.5189 81.8228 73C75.305 73.0518 68.77 73 62.2528 73.0167C61.8914 73.0167 61.5133 73.0167 61.1519 72.9655C62.6137 71.7793 63.3187 69.9561 64.007 68.2877C65.2795 64.9519 66.1733 61.5126 67.0164 58.0561C68.564 51.6413 69.7847 45.1587 71.0232 38.6921C72.5189 30.3517 74.0843 22.0113 76.0791 13.7739C77.0074 10.2143 77.9018 6.60289 79.5011 3.28387H79.5006Z" fill="#EB7077" stroke="#EB7077" stroke-width="0.052347"/>
<path d="M102.7 0.309064C103.25 0.309064 103.817 0.291801 104.368 0.309064C105.262 0.773504 105.899 1.56428 106.466 2.37231C107.394 3.85139 107.979 5.51982 108.581 7.15315C110.008 11.5386 111.075 16.0443 112.055 20.5495C113.362 26.6201 114.497 32.7252 115.614 38.8298C115.89 40.2916 116.165 41.7701 116.337 43.2497L116.595 43.5076C115.976 44.3674 115.735 45.3993 115.391 46.3794C114.307 49.8705 113.602 53.4819 113 57.076C112.537 59.8961 111.9 62.6994 111.023 65.4165C110.37 67.4285 109.578 69.4232 108.272 71.1083C107.652 71.9169 106.81 72.5356 105.881 72.9483C104.454 73.1031 103.611 71.7276 102.923 70.713C101.496 68.2192 100.722 65.4337 99.8964 62.7161C97.1794 52.656 95.4079 42.3554 93.4995 32.1232C93.4929 32.0476 93.4673 31.9748 93.4252 31.9116C93.383 31.8485 93.3257 31.797 93.2584 31.7618C94.6172 24.4533 96.0445 17.1447 98.0737 9.99103C98.8645 7.39428 99.6386 4.76301 100.963 2.38958C101.393 1.58154 102.063 0.945024 102.7 0.309064ZM0.0167236 39.4317C0.464457 39.3972 0.911634 39.3287 1.37552 39.3287H20.1202C20.911 39.4317 21.7368 39.3632 22.4936 39.7074C23.6018 40.163 24.5691 40.9048 25.2964 41.857C25.3827 41.8052 25.5375 41.6676 25.6233 41.5986C25.2107 44.4532 24.5402 47.2732 23.9727 50.1111C23.0611 54.4275 22.0982 58.7439 20.8943 63.0085C20.1202 65.657 19.3122 68.3223 18.0224 70.7815C17.5752 71.6413 16.8875 72.3636 16.1134 72.9655C15.8211 73.0173 15.5977 72.8107 15.3566 72.6559C14.5486 72.1403 14.0841 71.2459 13.5857 70.4379C11.2296 65.0723 10.9717 59.1393 9.5099 53.5331C8.77036 50.7303 7.85875 47.9443 6.51777 45.3648C5.69192 43.8166 4.67783 42.3381 3.35356 41.1514C2.37345 40.3606 1.23797 39.7241 0.0172805 39.4317H0.0167236Z" fill="#F6A2AD" stroke="#F6A2AD" stroke-width="0.052347"/>
<path d="M118.108 41.2205C119.191 39.9992 120.808 39.2257 122.442 39.2942H136.543C138.503 39.3288 140.481 39.2257 142.442 39.346C141.857 39.7414 141.152 39.8962 140.533 40.2231C138.383 41.2032 136.543 42.8366 135.374 44.8831C133.499 48.1509 132.845 51.8998 132.295 55.5797C131.745 59.1911 131.762 62.9228 130.593 66.4311C129.802 68.8903 128.598 71.3662 126.517 72.9828C120.052 73.0519 113.585 73.0001 107.136 73.0174C106.707 73.0174 106.294 73.0341 105.881 72.9483C106.81 72.5362 107.652 71.917 108.271 71.1084C109.578 69.4233 110.37 67.4285 111.023 65.4165C111.9 62.6989 112.537 59.8961 113 57.0761C113.602 53.4819 114.307 49.87 115.391 46.3794C115.735 45.3993 115.976 44.3674 116.595 43.5076C117.111 42.7508 117.454 41.8737 118.108 41.2205Z" fill="#EB7077" stroke="#EB7077" stroke-width="0.052347"/>
</svg>
