<svg width="31" height="31" viewBox="0 0 31 31" fill="none" xmlns="http://www.w3.org/2000/svg">
<path d="M29.5995 3.91077L29.5504 3.88009L23.3435 0.822205L16.6442 9.7546L19.7264 13.8644C19.6342 15.4144 18.9769 16.8767 17.879 17.9746C16.7811 19.0725 15.3187 19.7297 13.7688 19.822L9.65903 16.7398L0.726715 23.4389L3.75916 29.5939L3.78467 29.6459L3.81542 29.6949C3.97725 29.9557 4.20312 30.1706 4.47153 30.3194C4.73994 30.4682 5.04197 30.5458 5.34885 30.5448H6.95044C10.0364 30.5448 13.0921 29.937 15.9431 28.7561C18.7941 27.5751 21.3846 25.8442 23.5667 23.6621C25.7488 21.48 27.4797 18.8895 28.6606 16.0385C29.8415 13.1875 30.4493 10.1318 30.4493 7.04586V5.44419C30.4503 5.13732 30.3727 4.8353 30.224 4.56689C30.0752 4.29847 29.8602 4.0726 29.5995 3.91077ZM28.1556 7.04586C28.1556 18.7385 18.643 28.2511 6.95044 28.2511H5.65449L3.62555 24.1322L9.65946 19.6068L13.0188 22.1262H13.4011C15.6892 22.1236 17.8828 21.2136 19.5007 19.5957C21.1186 17.9778 22.0287 15.7841 22.0312 13.4961V13.1138L19.5118 9.75453L24.0367 3.72097L28.1556 5.75026V7.04586Z" fill="#E7F6F2"/>
</svg>
