<svg width="42" height="42" viewBox="0 0 42 42" fill="none" xmlns="http://www.w3.org/2000/svg">
<path d="M13.067 6.56147C14.4479 5.51569 16.1336 4.95164 17.8658 4.9558C18.464 4.94239 19.056 5.08008 19.5869 5.35614C20.1178 5.63221 20.5704 6.03772 20.903 6.53515C21.2356 6.03772 21.6883 5.63221 22.2192 5.35614C22.7501 5.08008 23.342 4.94239 23.9402 4.9558C25.6724 4.95164 27.3581 5.51569 28.739 6.56147C29.802 7.38759 30.6221 8.5316 30.9116 9.91454C31.5757 9.96516 32.1832 10.2405 32.6934 10.6556C33.4669 11.2833 34.0298 12.2248 34.3841 13.221C34.9389 14.77 35.0888 16.7442 34.5137 18.4248C34.6595 18.4936 34.8033 18.5746 34.943 18.6678C35.4998 19.0383 35.923 19.5688 36.2348 20.1945C36.8483 21.4195 37.1014 23.1284 37.1014 25.2038C37.1014 27.5141 36.2206 29.0651 35.1029 30.0228C34.4849 30.5528 33.7555 30.9369 32.9688 31.1466C32.7663 32.2764 32.1994 33.5845 31.3105 34.6941C30.1564 36.1418 28.3664 37.3526 25.965 37.3526C24.0617 37.3526 22.5472 36.2997 21.5631 35.2671C21.3278 35.0205 21.1074 34.7602 20.903 34.4875C20.6986 34.7602 20.4782 35.0205 20.2429 35.2671C19.2589 36.2997 17.7464 37.3526 15.841 37.3526C13.4396 37.3526 11.6517 36.1418 10.4955 34.6941C9.66488 33.6625 9.09595 32.4455 8.83722 31.1466C8.05055 30.9369 7.32115 30.5528 6.70308 30.0228C5.58539 29.0651 4.70461 27.5121 4.70461 25.2038C4.70461 23.1284 4.95973 21.4174 5.57122 20.1945C5.86103 19.5809 6.3064 19.0538 6.86304 18.6657C6.99979 18.5752 7.1433 18.4953 7.2923 18.4268C6.71726 16.7422 6.86709 14.77 7.42189 13.221C7.77623 12.2248 8.33912 11.2833 9.1126 10.6556C9.62285 10.2405 10.2303 9.96719 10.8944 9.91454C11.186 8.5316 12.006 7.38759 13.0691 6.56147H13.067ZM19.8906 10.0178V9.99756L19.8866 9.89632C19.8568 9.36846 19.7518 8.84756 19.5747 8.34937C19.4487 7.97329 19.2341 7.63301 18.9491 7.35722C18.65 7.09679 18.2619 6.96187 17.8658 6.98061C16.584 6.97621 15.3357 7.38994 14.3103 8.15904C13.3708 8.88999 12.8038 9.88012 12.8038 11.0302C12.8037 11.1905 12.7655 11.3485 12.6924 11.4912C12.6192 11.6339 12.5132 11.7572 12.3832 11.8509C12.2531 11.9446 12.1026 12.0061 11.9441 12.0303C11.7856 12.0544 11.6236 12.0406 11.4715 11.99C11.0908 11.8644 10.7507 11.9353 10.3882 12.2269C9.99136 12.5508 9.60462 13.1259 9.32723 13.9014C8.76231 15.4848 8.82103 17.4023 9.59652 18.5685C9.70728 18.7346 9.76645 18.9298 9.76661 19.1294H11.2852C12.4935 19.1294 13.6523 19.6094 14.5066 20.4638C15.361 21.3182 15.841 22.4769 15.841 23.6852V24.3635C16.5165 24.6023 17.0858 25.0723 17.4483 25.6903C17.8108 26.3082 17.9432 27.0345 17.8221 27.7406C17.7009 28.4468 17.334 29.0873 16.7862 29.5491C16.2385 30.0109 15.5451 30.2642 14.8286 30.2642C14.1121 30.2642 13.4188 30.0109 12.871 29.5491C12.3232 29.0873 11.9563 28.4468 11.8351 27.7406C11.714 27.0345 11.8464 26.3082 12.2089 25.6903C12.5714 25.0723 13.1407 24.6023 13.8162 24.3635V23.6852C13.8162 22.2881 12.6823 21.1542 11.2852 21.1542H7.74181C7.62077 21.154 7.50075 21.1321 7.38747 21.0894L7.38139 21.1016C6.98048 21.9014 6.72941 23.2296 6.72941 25.2038C6.72941 26.9431 7.36722 27.9231 8.02123 28.484C8.72384 29.0874 9.50338 29.2534 9.76661 29.2534C10.0351 29.2534 10.2926 29.3601 10.4825 29.5499C10.6723 29.7398 10.779 29.9973 10.779 30.2658C10.779 31.0109 11.184 32.3129 12.0749 33.4306C12.9435 34.5139 14.1928 35.3278 15.841 35.3278C16.9749 35.3278 17.9914 34.6941 18.777 33.87C19.1637 33.465 19.4654 33.0459 19.6618 32.7017C19.7512 32.549 19.8278 32.3892 19.8906 32.2238V16.0922H17.6937C17.4549 16.7677 16.985 17.337 16.367 17.6995C15.749 18.062 15.0228 18.1944 14.3166 18.0733C13.6105 17.9521 12.9699 17.5852 12.5081 17.0374C12.0463 16.4897 11.793 15.7963 11.793 15.0798C11.793 14.3633 12.0463 13.67 12.5081 13.1222C12.9699 12.5744 13.6105 12.2075 14.3166 12.0863C15.0228 11.9652 15.749 12.0976 16.367 12.4601C16.985 12.8226 17.4549 13.3919 17.6937 14.0674H19.8906V10.0178ZM21.9154 30.2638V32.2218C21.9783 32.3871 22.0548 32.547 22.1442 32.6996C22.3426 33.0438 22.6423 33.463 23.027 33.8679C23.8147 34.692 24.8332 35.3258 25.965 35.3258C27.6132 35.3258 28.8625 34.5118 29.7311 33.4286C30.6221 32.3109 31.027 31.0089 31.027 30.2638C31.027 29.9953 31.1337 29.7378 31.3235 29.5479C31.5134 29.3581 31.7709 29.2514 32.0394 29.2514C32.3026 29.2514 33.0822 29.0854 33.7848 28.482C34.4388 27.9211 35.0766 26.9411 35.0766 25.2018C35.0766 23.2276 34.8235 21.9014 34.4246 21.0995C34.2912 20.801 34.0817 20.5426 33.8172 20.3504C33.5892 20.2046 33.3222 20.1319 33.0518 20.1418C32.8687 20.1417 32.689 20.092 32.5319 19.9978C32.3749 19.9037 32.2463 19.7687 32.1598 19.6073C32.0734 19.4458 32.0324 19.264 32.0411 19.081C32.0499 18.8981 32.1081 18.721 32.2095 18.5685C32.987 17.4023 33.0437 15.4848 32.4788 13.9014C32.2014 13.1259 31.8147 12.5488 31.4178 12.2269C31.0554 11.9353 30.7152 11.8624 30.3345 11.99C30.1824 12.0406 30.0205 12.0544 29.862 12.0303C29.7035 12.0061 29.553 11.9446 29.4229 11.8509C29.2928 11.7572 29.1868 11.6339 29.1137 11.4912C29.0405 11.3485 29.0023 11.1905 29.0022 11.0302C29.0022 9.88012 28.4353 8.88999 27.4937 8.15904C26.4688 7.39035 25.2213 6.97665 23.9402 6.98061C23.5441 6.96187 23.156 7.09679 22.8569 7.35722C22.571 7.63269 22.3557 7.97302 22.2293 8.34937C22.0365 8.87826 21.9305 9.43484 21.9154 9.99756V28.241H23.434C24.8311 28.241 25.965 27.1071 25.965 25.71V21.9945C25.2895 21.7557 24.7202 21.2858 24.3577 20.6678C23.9952 20.0498 23.8628 19.3236 23.984 18.6174C24.1051 17.9113 24.472 17.2707 25.0198 16.8089C25.5676 16.3471 26.261 16.0938 26.9774 16.0938C27.6939 16.0938 28.3873 16.3471 28.9351 16.8089C29.4828 17.2707 29.8497 17.9113 29.9709 18.6174C30.092 19.3236 29.9597 20.0498 29.5971 20.6678C29.2346 21.2858 28.6653 21.7557 27.9898 21.9945V25.71C27.9898 26.9183 27.5098 28.0771 26.6555 28.9315C25.8011 29.7858 24.6423 30.2658 23.434 30.2658H21.9154V30.2638ZM13.8162 15.0798C13.8162 15.3483 13.9229 15.6058 14.1127 15.7957C14.3026 15.9855 14.5601 16.0922 14.8286 16.0922C15.0971 16.0922 15.3546 15.9855 15.5445 15.7957C15.7343 15.6058 15.841 15.3483 15.841 15.0798C15.841 14.8113 15.7343 14.5538 15.5445 14.3639C15.3546 14.1741 15.0971 14.0674 14.8286 14.0674C14.5601 14.0674 14.3026 14.1741 14.1127 14.3639C13.9229 14.5538 13.8162 14.8113 13.8162 15.0798ZM26.9774 20.1418C27.2459 20.1418 27.5034 20.0352 27.6933 19.8453C27.8832 19.6554 27.9898 19.3979 27.9898 19.1294C27.9898 18.8609 27.8832 18.6034 27.6933 18.4135C27.5034 18.2237 27.2459 18.117 26.9774 18.117C26.7089 18.117 26.4514 18.2237 26.2615 18.4135C26.0717 18.6034 25.965 18.8609 25.965 19.1294C25.965 19.3979 26.0717 19.6554 26.2615 19.8453C26.4514 20.0352 26.7089 20.1418 26.9774 20.1418ZM14.8286 26.2162C14.5601 26.2162 14.3026 26.3229 14.1127 26.5127C13.9229 26.7026 13.8162 26.9601 13.8162 27.2286C13.8162 27.4971 13.9229 27.7546 14.1127 27.9445C14.3026 28.1344 14.5601 28.241 14.8286 28.241C15.0971 28.241 15.3546 28.1344 15.5445 27.9445C15.7343 27.7546 15.841 27.4971 15.841 27.2286C15.841 26.9601 15.7343 26.7026 15.5445 26.5127C15.3546 26.3229 15.0971 26.2162 14.8286 26.2162Z" fill="#E7F6F2"/>
</svg>
