<svg width="38" height="38" viewBox="0 0 38 38" fill="none" xmlns="http://www.w3.org/2000/svg">
<path d="M20.0048 32.1653C19.75 32.1653 19.5012 32.1337 19.2586 32.0705C19.017 32.0063 18.7815 31.9105 18.5521 31.783L10.9064 27.6543C10.3967 27.374 10.0016 26.9983 9.7213 26.5274C9.44096 26.0554 9.30079 25.5263 9.30079 24.9401V17.6002L5.63084 15.5741C5.35049 15.4212 5.14661 15.23 5.01918 15.0007C4.89175 14.7713 4.82803 14.5164 4.82803 14.2361C4.82803 13.9557 4.89175 13.7009 5.01918 13.4715C5.14661 13.2421 5.35049 13.051 5.63084 12.8981L18.5521 5.86401C18.7815 5.73658 19.017 5.64075 19.2586 5.57653C19.5012 5.51332 19.75 5.48172 20.0048 5.48172C20.2597 5.48172 20.5084 5.51332 20.751 5.57653C20.9926 5.64075 21.2281 5.73658 21.4575 5.86401L36.0226 13.8156C36.2775 13.943 36.4753 14.1275 36.6159 14.3691C36.7556 14.6117 36.8254 14.8732 36.8254 15.1536V24.9401C36.8254 25.3734 36.6786 25.7363 36.385 26.0289C36.0925 26.3225 35.7295 26.4693 35.2963 26.4693C34.863 26.4693 34.5001 26.3225 34.2075 26.0289C33.9139 25.7363 33.7671 25.3734 33.7671 24.9401V15.9181L30.7088 17.6002V24.9401C30.7088 25.5263 30.5687 26.0554 30.2883 26.5274C30.008 26.9983 29.613 27.374 29.1032 27.6543L21.4575 31.783C21.2281 31.9105 20.9926 32.0063 20.751 32.0705C20.5084 32.1337 20.2597 32.1653 20.0048 32.1653ZM20.0048 19.8939L30.4795 14.2361L20.0048 8.57824L9.53016 14.2361L20.0048 19.8939ZM20.0048 29.107L27.6505 24.9783V19.2058L21.4957 22.6082C21.2664 22.7356 21.0242 22.8309 20.7694 22.8941C20.5145 22.9583 20.2597 22.9904 20.0048 22.9904C19.75 22.9904 19.4951 22.9583 19.2402 22.8941C18.9854 22.8309 18.7433 22.7356 18.5139 22.6082L12.3591 19.2058V24.9783L20.0048 29.107Z" fill="#E7F6F2"/>
</svg>
