<svg width="75" height="73" viewBox="0 0 75 73" fill="none" xmlns="http://www.w3.org/2000/svg">
<g clip-path="url(#clip0_150_507)">
<path d="M61.93 0.136963H12.031C5.18174 0.136963 -0.370728 5.68943 -0.370728 12.5387V60.5701C-0.370728 67.4194 5.18174 72.9719 12.031 72.9719H61.93C68.7793 72.9719 74.3317 67.4194 74.3317 60.5701V12.5387C74.3317 5.68943 68.7793 0.136963 61.93 0.136963Z" fill="#001E36"/>
<path d="M16.4502 51.2134V19.1912C16.4502 18.9577 16.5506 18.8404 16.751 18.8404L17.0682 18.8395L17.6104 18.8337L18.3639 18.8188L20.888 18.7654L23.5945 18.7152C24.5464 18.6989 25.4901 18.6901 26.4256 18.6901C28.9643 18.6901 31.1024 19.0076 32.8401 19.6423C34.4076 20.1725 35.8371 21.0456 37.0246 22.1979C38.0313 23.1969 38.8092 24.4023 39.3048 25.7311C39.7736 27.0242 40.0111 28.3897 40.0066 29.7651C40.0066 32.4383 39.3882 34.6432 38.1521 36.38C36.9431 38.0745 35.2567 39.3703 33.3081 40.1023L33.1409 40.1636C31.1062 40.9226 28.8528 41.1969 26.3815 41.2141L25.9975 41.2153L25.4276 41.2123L25.1402 41.2083L24.8198 41.2007L24.6266 41.1931L24.5093 41.1869L24.2207 41.1764L23.8679 41.1691L23.3368 41.1654L23.2186 41.1651V51.1632C23.2274 51.2245 23.2218 51.287 23.2023 51.3457C23.1827 51.4045 23.1497 51.4579 23.1059 51.5016C23.0622 51.5454 23.0088 51.5784 22.95 51.598C22.8913 51.6175 22.8288 51.6231 22.7675 51.6144H16.8012C16.5669 51.6144 16.4502 51.4813 16.4502 51.2134ZM23.2189 24.854V35.2983C23.6189 35.3306 24.0199 35.3473 24.4212 35.3485H26.0751C27.2154 35.3446 28.3491 35.1749 29.4405 34.8445L29.6582 34.7765C30.6511 34.4816 31.5383 33.9075 32.2142 33.1226C32.8421 32.382 33.1675 31.3615 33.19 30.0609L33.1914 29.9153C33.2177 28.946 32.9656 27.9894 32.4645 27.1592C31.938 26.3563 31.1769 25.7351 30.2847 25.3801C29.1198 24.9273 27.8755 24.7143 26.6264 24.7539L25.9908 24.7556L25.5899 24.7591L25.2073 24.7641L24.6675 24.7746L24.2735 24.7857L24.069 24.7933L23.7955 24.8061L23.5627 24.8204L23.4299 24.8309L23.3152 24.842L23.2648 24.8478L23.2189 24.854ZM59.3825 33.3992C58.5083 32.95 57.5811 32.6125 56.6226 32.3948L56.4008 32.347C55.3464 32.105 54.2699 31.9717 53.1883 31.9492L52.9181 31.946C52.2841 31.9288 51.6509 32.0048 51.0389 32.1716C50.6493 32.2582 50.3029 32.4801 50.0613 32.7978C49.898 33.052 49.8111 33.3477 49.811 33.6499C49.8201 33.9429 49.9258 34.2247 50.1115 34.4515C50.3775 34.7625 50.6972 35.0232 51.0555 35.221L51.1641 35.2785C51.8786 35.6632 52.6148 36.0061 53.369 36.3056C55.0508 36.8686 56.6578 37.6343 58.1546 38.5858C59.1744 39.2294 60.0183 40.1163 60.6104 41.1668C61.1082 42.1614 61.3576 43.2618 61.337 44.3738C61.367 45.8424 60.9473 47.285 60.1342 48.5084C59.2637 49.75 58.0547 50.7153 56.6512 51.2893C55.1814 51.9353 53.3763 52.2689 51.2362 52.2908L51.0138 52.2919C49.6871 52.3054 48.3622 52.1893 47.0581 51.9453L46.7791 51.891C45.681 51.6896 44.6122 51.3529 43.597 50.8886C43.4949 50.836 43.4087 50.7571 43.3471 50.6603C43.2855 50.5634 43.2507 50.4519 43.2462 50.3371V44.8751C43.2402 44.8221 43.2487 44.7684 43.2708 44.7199C43.2929 44.6713 43.3278 44.6296 43.3717 44.5993C43.4147 44.575 43.4641 44.5644 43.5133 44.5689C43.5625 44.5734 43.6092 44.5927 43.6471 44.6244C44.8461 45.3314 46.1479 45.8471 47.5057 46.1529C48.7026 46.453 49.9303 46.6128 51.1641 46.6291C52.3331 46.6291 53.1933 46.4786 53.7448 46.178C53.9939 46.064 54.2045 45.8803 54.3513 45.649C54.4981 45.4178 54.5746 45.149 54.5718 44.8751C54.5718 44.4415 54.3211 44.0236 53.8201 43.6224C53.61 43.4543 53.3086 43.2713 52.9164 43.0738L52.7287 42.9816L52.5286 42.8873L52.4235 42.8394L52.2035 42.742C52.1653 42.7253 52.1271 42.7088 52.0888 42.6924L51.8495 42.592L51.7249 42.5409L51.4664 42.4373L51.3322 42.3848L51.0541 42.2777L50.7631 42.1689C49.1896 41.6212 47.6976 40.8626 46.328 39.9138C45.3484 39.2325 44.5419 38.3315 43.9728 37.2829C43.48 36.2954 43.2308 35.2042 43.2462 34.1007C43.2434 32.7748 43.6076 31.474 44.2985 30.3423C45.0863 29.0962 46.2174 28.1041 47.5559 27.486C49.0257 26.7516 50.8629 26.3839 53.0681 26.3833C54.3597 26.3729 55.65 26.4652 56.927 26.6591C57.8516 26.7763 58.7556 27.0209 59.6133 27.3857C59.7514 27.4254 59.8625 27.5272 59.9139 27.6614C59.948 27.7837 59.9647 27.91 59.9641 28.0373V33.0987C59.9714 33.2183 59.9139 33.333 59.8138 33.3992C59.7468 33.4325 59.673 33.4499 59.5982 33.4499C59.5233 33.4499 59.4495 33.4325 59.3825 33.3992Z" fill="#31A8FF"/>
</g>
<defs>
<clipPath id="clip0_150_507">
<rect width="74.7025" height="72.9516" fill="white" transform="translate(-0.370728 0.136963)"/>
</clipPath>
</defs>
</svg>
