<svg width="85" height="35" viewBox="0 0 85 35" fill="none" xmlns="http://www.w3.org/2000/svg">
<path d="M0 0H11.8559C15.955 0 18.9189 0.833333 20.8108 2.4537C22.7027 4.07407 23.5856 6.48148 23.5856 9.67593C23.5856 12.5463 22.5766 14.7685 20.5586 16.3426C18.6036 17.9167 15.7027 18.7037 11.9189 18.7037H6.62162V35H0V0ZM9.71171 15.1852C11.6667 15.1852 13.1802 15.0463 14.2523 14.7222C15.3243 14.3981 16.0811 13.8426 16.5856 13.1019C17.0901 12.3148 17.2793 11.2037 17.2793 9.72222C17.2793 7.91667 17.0901 6.62037 16.7748 5.78704C16.3964 4.9537 15.7027 4.35185 14.6937 4.02778C13.6216 3.65741 11.982 3.51852 9.77477 3.51852H6.62162V15.2315H9.71171V15.1852Z" fill="#3A5E68"/>
<path d="M28.2522 0H34.8738V15.1389H47.1081V0H53.7297V35H47.1081V18.6111H34.8738V35H28.2522V0Z" fill="#3A5E68"/>
<path d="M82.0451 2.4537C80.2163 0.833333 77.1893 0 73.0902 0H61.2974V35H67.919V18.7037H73.1532C77.0001 18.7037 79.901 17.9167 81.8559 16.3426C83.8739 14.7685 84.8199 12.5463 84.8199 9.67593C84.8829 6.48148 83.937 4.12037 82.0451 2.4537ZM77.883 13.1019C77.4415 13.8889 76.6217 14.4444 75.5496 14.7685C74.4775 15.0926 72.901 15.2315 71.0091 15.2315H67.919V3.47222H71.0721C73.2793 3.47222 74.919 3.65741 75.9911 3.98148C77.0631 4.35185 77.6938 4.9537 78.0721 5.78704C78.3875 6.62037 78.5766 7.91667 78.5766 9.72222C78.5766 11.2037 78.3244 12.3148 77.883 13.1019Z" fill="#3A5E68"/>
</svg>
