<svg width="30" height="28" viewBox="0 0 30 28" fill="none" xmlns="http://www.w3.org/2000/svg">
<path d="M19.8562 23.7303C19.7054 23.6385 19.574 23.5155 19.4695 23.3664C19.4213 23.2977 19.3805 23.225 19.3468 23.1498H2.20832V6.25723H25.4713V17.2875C25.9679 17.3323 26.3846 17.6585 26.5596 18.1052C26.7145 18.0203 26.8871 17.9678 27.0686 17.9518C27.1914 17.9411 27.3133 17.9487 27.4315 17.9721V2.04891C27.4315 1.14813 26.6988 0.415283 25.7981 0.415283H1.88158C0.980859 0.415283 0.248016 1.14813 0.248016 2.04891V23.4766C0.248016 24.3774 0.980859 25.1102 1.88158 25.1102H19.7073C19.5682 24.8285 19.5352 24.5105 19.6171 24.2046C19.6643 24.0286 19.7459 23.868 19.8562 23.7303ZM23.6774 3.15847C23.6774 2.82535 23.9475 2.55524 24.2806 2.55524H24.8837C25.2169 2.55524 25.4869 2.82528 25.4869 3.15847V3.8421C25.4869 4.17522 25.2168 4.44526 24.8837 4.44526H24.2806C23.9474 4.44526 23.6774 4.17522 23.6774 3.8421V3.15847ZM20.8727 3.15847C20.8727 2.82535 21.1427 2.55524 21.4758 2.55524H22.0791C22.4123 2.55524 22.6822 2.82528 22.6822 3.15847V3.8421C22.6822 4.17522 22.4122 4.44526 22.0791 4.44526H21.4758C21.1427 4.44526 20.8727 4.17522 20.8727 3.8421V3.15847ZM18.0679 3.15847C18.0679 2.82535 18.338 2.55524 18.671 2.55524H19.2742C19.6074 2.55524 19.8774 2.82528 19.8774 3.15847V3.8421C19.8774 4.17522 19.6074 4.44526 19.2742 4.44526H18.671C18.338 4.44526 18.0679 4.17522 18.0679 3.8421V3.15847Z" fill="#E7F6F2"/>
<path d="M29.3507 22.5799L29.1694 21.552C29.1449 21.4136 29.013 21.3211 28.8745 21.3455L27.9604 21.5066C27.8507 21.2491 27.7105 21.0079 27.5442 20.7871L28.1412 20.0754C28.1846 20.0239 28.2057 19.957 28.1999 19.8897C28.194 19.8224 28.1615 19.7603 28.1098 19.7168L27.3104 19.0459C27.2587 19.0025 27.1916 18.9814 27.1244 18.9873C27.0571 18.9932 26.995 19.0256 26.9516 19.0773L26.3551 19.7884C26.1102 19.6637 25.8483 19.5675 25.5739 19.504V18.5757C25.5739 18.4352 25.4599 18.3211 25.3193 18.3211H24.2754C24.1349 18.3211 24.0209 18.4352 24.0209 18.5757V19.504C23.7463 19.5674 23.4847 19.6637 23.2396 19.7884L22.643 19.0773C22.5526 18.9696 22.3921 18.9556 22.2843 19.0459L21.4848 19.7168C21.4331 19.7603 21.4007 19.8224 21.3947 19.8897C21.3889 19.957 21.41 20.0239 21.4534 20.0757L22.0505 20.7872C21.8844 21.0079 21.744 21.2493 21.6343 21.5067L20.7202 21.3455C20.582 21.3212 20.4498 21.4136 20.4253 21.552L20.2441 22.5799C20.2324 22.6464 20.2475 22.7147 20.2862 22.7701C20.325 22.8255 20.3839 22.8631 20.4504 22.8748L21.3652 23.0361C21.3801 23.3195 21.4295 23.5937 21.5089 23.8548L20.7049 24.3188C20.6464 24.3525 20.6037 24.4082 20.5862 24.4733C20.5687 24.5386 20.578 24.608 20.6116 24.6665L21.1335 25.5704C21.1671 25.6289 21.2228 25.6715 21.288 25.689C21.3097 25.6948 21.3318 25.6977 21.3539 25.6977C21.3982 25.6977 21.4421 25.6862 21.4812 25.6636L22.2858 25.199C22.475 25.4017 22.6887 25.5814 22.9221 25.7333L22.6044 26.6062C22.5814 26.6696 22.5844 26.7396 22.6129 26.8009C22.6415 26.8621 22.6931 26.9094 22.7565 26.9324L23.7372 27.2893C23.7653 27.2996 23.7948 27.3048 23.8243 27.3048C23.861 27.3048 23.898 27.2969 23.932 27.2809C23.9932 27.2524 24.0404 27.2007 24.0635 27.1372L24.3811 26.2644C24.5173 26.2809 24.656 26.2894 24.7966 26.2894C24.9372 26.2894 25.0759 26.2807 25.2121 26.2644L25.5298 27.1372C25.5528 27.2007 25.6002 27.2524 25.6613 27.2809C25.6952 27.2968 25.732 27.3048 25.769 27.3048C25.7984 27.3048 25.8279 27.2997 25.856 27.2893L26.8368 26.9324C26.9001 26.9094 26.9518 26.8619 26.9803 26.8009C27.0089 26.7396 27.0119 26.6696 26.9888 26.6062L26.6711 25.7334C26.9043 25.5815 27.118 25.4017 27.3074 25.1991L28.112 25.6637C28.1511 25.6862 28.195 25.6978 28.2393 25.6978C28.2613 25.6978 28.2837 25.6948 28.3052 25.6891C28.3704 25.6717 28.426 25.6289 28.4597 25.5706L28.9816 24.6665C29.0152 24.6081 29.0245 24.5386 29.007 24.4733C28.9895 24.4083 28.9468 24.3526 28.8883 24.3188L28.0844 23.8549C28.1639 23.5938 28.2131 23.3196 28.228 23.0362L29.1428 22.8749C29.2093 22.8632 29.2684 22.8256 29.3071 22.7702C29.3472 22.7147 29.3624 22.6464 29.3507 22.5799ZM24.7974 24.2133C24.0243 24.2133 23.3973 23.5864 23.3973 22.8132C23.3973 22.0399 24.0243 21.413 24.7974 21.413C25.5707 21.413 26.1976 22.0399 26.1976 22.8132C26.1976 23.5864 25.5707 24.2133 24.7974 24.2133Z" fill="#E7F6F2"/>
<path d="M11.6635 15.6212C11.6635 15.2918 11.4704 14.9893 11.1716 14.8505L8.43688 13.5799L11.1717 12.3091C11.4704 12.1702 11.6635 11.8677 11.6635 11.5385V11.5163C11.6635 11.2245 11.5166 10.9566 11.2708 10.8001C11.1348 10.7132 10.9764 10.6673 10.8129 10.6673C10.6897 10.6673 10.566 10.6944 10.4553 10.7458L6.08316 12.7789C5.7845 12.9178 5.5916 13.2203 5.5916 13.5495V13.6103C5.5916 13.939 5.78443 14.2413 6.08323 14.3809L10.4557 16.4143C10.5688 16.4666 10.6892 16.4931 10.8135 16.4931C10.9756 16.4931 11.1335 16.4471 11.2708 16.3598C11.5167 16.2026 11.6635 15.9349 11.6635 15.6434L11.6635 15.6212Z" fill="#E7F6F2"/>
<path d="M15.9772 8.59556C15.8178 8.37723 15.5612 8.24692 15.291 8.24692H15.2692C14.8981 8.24692 14.5728 8.48431 14.4597 8.83718L11.5791 17.7627C11.4971 18.0204 11.5432 18.3042 11.7025 18.5225C11.862 18.7407 12.1185 18.8711 12.3888 18.8711H12.4106C12.7816 18.8711 13.1067 18.6336 13.2196 18.2808L16.0999 9.35599C16.1827 9.09849 16.1368 8.81424 15.9772 8.59556Z" fill="#E7F6F2"/>
<path d="M21.5964 12.7789L17.2242 10.7457C17.1139 10.6944 16.9903 10.6673 16.8671 10.6673C16.7037 10.6673 16.5452 10.7131 16.4093 10.7999C16.1631 10.9567 16.0162 11.2245 16.0162 11.5163V11.5384C16.0162 11.8674 16.2091 12.17 16.5081 12.3094L19.2428 13.5799L16.5081 14.8505C16.2093 14.9892 16.0162 15.2918 16.0162 15.6212V15.6434C16.0162 15.9349 16.1631 16.2025 16.4092 16.3598C16.546 16.447 16.704 16.4931 16.8663 16.4931C16.9905 16.4931 17.1107 16.4666 17.2245 16.414L21.5969 14.3807C21.8955 14.2414 22.0882 13.9391 22.0882 13.6103V13.5496C22.088 13.2203 21.8951 12.9178 21.5964 12.7789Z" fill="#E7F6F2"/>
</svg>
