<svg width="74" height="73" viewBox="0 0 74 73" fill="none" xmlns="http://www.w3.org/2000/svg">
<g clip-path="url(#clip0_74_488)">
<path d="M36.9214 0.0206604C18.1819 0.0206604 19.3519 8.14722 19.3519 8.14722L19.3727 16.5666H37.2555V19.0943H12.27C12.27 19.0943 0.278564 17.7343 0.278564 36.6424C0.278564 55.551 10.745 54.8804 10.745 54.8804H16.9913V46.1061C16.9913 46.1061 16.6545 35.6397 27.2906 35.6397H45.0271C45.0271 35.6397 54.992 35.8007 54.992 26.0089V9.81878C54.992 9.81878 56.5055 0.0206604 36.9214 0.0206604ZM27.0608 5.68252C27.4834 5.68214 27.9019 5.76509 28.2924 5.92663C28.6829 6.08817 29.0377 6.32512 29.3365 6.62393C29.6353 6.92274 29.8722 7.27754 30.0338 7.66803C30.1953 8.05852 30.2783 8.47703 30.2779 8.89961C30.2783 9.32219 30.1953 9.7407 30.0338 10.1312C29.8722 10.5217 29.6353 10.8765 29.3365 11.1753C29.0377 11.4741 28.6829 11.7111 28.2924 11.8726C27.9019 12.0341 27.4834 12.1171 27.0608 12.1167C26.6382 12.1171 26.2197 12.0341 25.8292 11.8726C25.4387 11.7111 25.0839 11.4741 24.7851 11.1753C24.4863 10.8765 24.2494 10.5217 24.0878 10.1312C23.9263 9.7407 23.8433 9.32219 23.8437 8.89961C23.8433 8.47703 23.9263 8.05852 24.0878 7.66803C24.2494 7.27754 24.4863 6.92274 24.7851 6.62393C25.0839 6.32512 25.4387 6.08817 25.8292 5.92663C26.2197 5.76509 26.6382 5.68214 27.0608 5.68252Z" fill="url(#paint0_linear_74_488)"/>
<path d="M37.4534 73.4544C56.1929 73.4544 55.0228 65.3278 55.0228 65.3278L55.002 56.9087H37.119V54.381H62.1045C62.1045 54.381 74.0959 55.741 74.0959 36.8324C74.0959 17.9241 63.6295 18.5946 63.6295 18.5946H57.3832V27.3687C57.3832 27.3687 57.7199 37.8351 47.0839 37.8351H29.3474C29.3474 37.8351 19.3825 37.6741 19.3825 47.4661V63.6565C19.3825 63.6565 17.8693 73.4544 37.4531 73.4544H37.4534ZM47.3139 67.7931C46.8914 67.7935 46.4729 67.7105 46.0824 67.549C45.6919 67.3874 45.3371 67.1505 45.0383 66.8517C44.7395 66.5528 44.5025 66.198 44.341 65.8076C44.1794 65.4171 44.0965 64.9986 44.0969 64.576C44.0964 64.1534 44.1794 63.7348 44.3409 63.3443C44.5024 62.9538 44.7394 62.599 45.0382 62.3001C45.337 62.0013 45.6918 61.7643 46.0823 61.6027C46.4728 61.4412 46.8913 61.3582 47.3139 61.3586C47.7365 61.3582 48.155 61.4412 48.5455 61.6027C48.936 61.7642 49.2908 62.0012 49.5896 62.3C49.8884 62.5988 50.1254 62.9536 50.2869 63.3441C50.4485 63.7346 50.5314 64.1531 50.531 64.5757C50.5314 64.9983 50.4485 65.4168 50.2869 65.8073C50.1254 66.1978 49.8884 66.5526 49.5896 66.8514C49.2908 67.1502 48.936 67.3871 48.5455 67.5487C48.155 67.7102 47.7365 67.7932 47.3139 67.7928V67.7931Z" fill="url(#paint1_linear_74_488)"/>
</g>
<defs>
<linearGradient id="paint0_linear_74_488" x1="7.3724" y1="6.62557" x2="43.9541" y2="42.8423" gradientUnits="userSpaceOnUse">
<stop stop-color="#387EB8"/>
<stop offset="1" stop-color="#366994"/>
</linearGradient>
<linearGradient id="paint1_linear_74_488" x1="29.8261" y1="29.8819" x2="69.1106" y2="67.0188" gradientUnits="userSpaceOnUse">
<stop stop-color="#FFE052"/>
<stop offset="1" stop-color="#FFC331"/>
</linearGradient>
<clipPath id="clip0_74_488">
<rect width="73.9961" height="73.707" fill="white" transform="translate(0.236572)"/>
</clipPath>
</defs>
</svg>
