<svg width="98" height="73" viewBox="0 0 98 73" fill="none" xmlns="http://www.w3.org/2000/svg">
<path d="M84.1541 42.0184C80.7679 42.0359 77.8247 42.8514 75.3606 44.057C74.4561 42.2663 73.5519 40.6709 73.3926 39.5006C73.2151 38.1357 73.0025 37.3023 73.2151 35.6712C73.428 34.0401 74.3854 31.7174 74.3675 31.5402C74.35 31.363 74.1546 30.5296 72.2045 30.5121C70.2544 30.4942 68.5701 30.8843 68.375 31.3984C68.18 31.9124 67.8077 33.0827 67.5595 34.288C67.2226 36.0613 63.6593 42.3902 61.6206 45.7056C60.9644 44.4118 60.3971 43.2769 60.2728 42.3727C60.0956 41.0078 59.8827 40.1744 60.0956 38.5433C60.3085 36.9122 61.2659 34.5899 61.248 34.4123C61.2301 34.2351 61.0351 33.4017 59.085 33.3842C57.1345 33.3663 55.4502 33.7564 55.2556 34.2705C55.0605 34.7849 54.8476 35.9902 54.44 37.1604C54.032 38.3307 49.2985 48.8975 48.0574 51.6274C47.5559 52.7323 47.0299 53.8259 46.4796 54.9074C46.4796 54.9074 46.4617 54.9607 46.4085 55.0492C46.2356 55.3884 46.0584 55.7252 45.877 56.0598V56.0773C45.6108 56.5564 45.3272 56.9993 45.1854 56.9993C45.0789 56.9993 44.8838 55.723 45.2207 53.9854C45.9298 50.3156 47.6141 44.6068 47.5966 44.4118C47.5966 44.3053 47.9156 43.3126 46.4975 42.7982C45.1143 42.2841 44.6181 43.135 44.4938 43.135C44.3698 43.135 44.2808 43.4365 44.2808 43.4365C44.2808 43.4365 45.8237 37.0186 41.338 37.0186C38.537 37.0186 34.6718 40.0858 32.7571 42.8514C30.5805 44.0359 28.4057 45.2238 26.2327 46.4151C25.1872 47.0002 24.1055 47.5854 23.0949 48.1348C23.0238 48.0641 22.9531 47.9751 22.882 47.9044C17.4568 42.107 7.4223 38.0113 7.84775 30.2285C8.00744 27.3917 8.9823 19.9454 27.1194 10.9036C42.0471 3.54584 53.926 5.58452 55.9825 10.1056C58.9253 16.5592 49.6178 28.5442 34.1931 30.2813C28.3071 30.9376 25.2221 28.6681 24.4423 27.8172C23.6268 26.9306 23.5025 26.8773 23.2009 27.0549C22.7048 27.321 23.0238 28.1187 23.2009 28.5795C23.6621 29.7848 25.559 31.9124 28.768 32.9588C31.6047 33.8804 38.5013 34.3948 46.8518 31.168C56.195 27.5511 63.4996 17.4987 61.3545 9.07749C59.209 0.531928 45.0257 -2.28694 31.6047 2.48202C23.6268 5.31913 14.9748 9.78658 8.75189 15.6019C1.35874 22.516 0.188456 28.5263 0.667138 31.044C2.3872 39.9793 14.709 45.7946 19.6376 50.1027C19.3894 50.2445 19.1586 50.3689 18.9639 50.4753C16.4994 51.6985 7.10292 56.6092 4.76274 61.804C2.10357 67.69 5.18858 71.91 7.22725 72.4768C13.5566 74.2323 20.0631 71.0765 23.5557 65.8639C27.0483 60.6516 26.6228 53.879 25.0096 50.7765C24.9917 50.7411 24.9742 50.7054 24.9385 50.67C25.5769 50.2978 26.2327 49.9077 26.8711 49.5355C28.0444 48.8419 29.2325 48.1738 30.4348 47.5318C29.8318 49.1807 29.3885 51.1487 29.1759 53.9854C28.9098 57.3187 30.2747 61.6443 32.0655 63.3461C32.8636 64.0914 33.8031 64.1088 34.4061 64.1088C36.498 64.1088 37.4379 62.3713 38.4838 60.3147C39.7602 57.7974 40.9126 54.8721 40.9126 54.8721C40.9126 54.8721 39.4765 62.7793 43.3771 62.7793C44.7953 62.7793 46.2313 60.9352 46.8697 59.9958V60.0132C46.8697 60.0132 46.905 59.96 46.9761 59.8361C47.118 59.6057 47.2065 59.4635 47.2065 59.4635V59.4285C47.7738 58.4354 49.0505 56.1838 50.9474 52.4429C53.3941 47.6207 55.7521 41.5929 55.7521 41.5929C55.7521 41.5929 55.965 43.0643 56.6916 45.511C57.1174 46.947 58.0033 48.5249 58.7128 50.0495C58.1455 50.8476 57.7908 51.2905 57.7908 51.2905L57.8087 51.3084C57.3475 51.911 56.8513 52.5669 56.3015 53.2056C54.3689 55.5101 52.0645 58.1521 51.7451 58.9141C51.3725 59.8182 51.4615 60.4744 52.1709 61.0063C52.685 61.3964 53.6066 61.4493 54.5465 61.3964C56.284 61.2721 57.5071 60.8467 58.1098 60.5809C59.0497 60.244 60.1488 59.7296 61.1769 58.9673C63.0742 57.5666 64.2262 55.5633 64.1201 52.922C64.0669 51.4681 63.5882 50.0141 63.0031 48.6488C63.1806 48.4009 63.3399 48.1526 63.5175 47.9044C66.5135 43.5251 68.8362 38.7204 68.8362 38.7204C68.8362 38.7204 69.0491 40.1918 69.7757 42.6389C70.1304 43.8799 70.8574 45.2273 71.4954 46.539C68.6765 48.8264 66.939 51.4855 66.3185 53.2231C65.2018 56.4499 66.0702 57.9035 67.7192 58.2403C68.4636 58.4 69.5274 58.0453 70.3076 57.7084C71.3003 57.3894 72.4706 56.84 73.5877 56.0241C75.4849 54.6238 77.3107 52.6733 77.2042 50.032C77.151 48.8264 76.832 47.6382 76.3887 46.4858C78.7821 45.4935 81.8671 44.9437 85.8026 45.4045C94.2421 46.3972 95.9086 51.6627 95.5892 53.8793C95.2702 56.0952 93.4973 57.3008 92.9125 57.6731C92.327 58.0457 92.1323 58.1696 92.1856 58.4354C92.2563 58.8255 92.5399 58.808 93.0365 58.7369C93.7281 58.6129 97.4689 56.9461 97.6283 52.8684C97.8944 47.6561 92.93 41.9651 84.1541 42.0184ZM19.0525 63.967C16.2511 67.0163 12.3509 68.1687 10.6666 67.1939C8.85835 66.1475 9.56744 61.6443 13.0068 58.4179C15.0987 56.4499 17.7936 54.6234 19.5844 53.5067C19.992 53.2585 20.595 52.9041 21.322 52.4608C21.4459 52.3897 21.517 52.3543 21.517 52.3543L21.9425 52.0882C23.2009 56.6978 21.9957 60.7581 19.0525 63.967ZM39.4412 50.1027C38.4659 52.4786 36.4273 58.5597 35.1863 58.2228C34.1224 57.9392 33.4662 53.3296 34.9733 48.7731C35.7357 46.4858 37.3489 43.7555 38.2888 42.6921C39.8134 40.9899 41.4977 40.4222 41.9053 41.1142C42.4197 42.0184 40.0438 48.6135 39.4412 50.1027ZM56.2661 58.1517C55.8582 58.3647 55.4685 58.5065 55.2909 58.4C55.167 58.3289 55.4685 58.0453 55.4685 58.0453C55.4685 58.0453 57.5782 55.7762 58.4113 54.7477C58.8903 54.1451 59.4572 53.436 60.0602 52.638V52.8684C60.0602 55.5812 57.436 57.4073 56.2658 58.1517H56.2661ZM69.2438 55.1911C68.9423 54.9781 68.9955 54.2691 70.0061 52.0528C70.3962 51.184 71.3178 49.7305 72.8961 48.3298C73.0733 48.8971 73.1976 49.4469 73.1797 49.9609C73.1618 53.3828 70.7156 54.6591 69.2438 55.1911Z" fill="#CD6799"/>
</svg>
