<svg width="31" height="32" viewBox="0 0 31 32" fill="none" xmlns="http://www.w3.org/2000/svg">
<path d="M20.8586 7.23642C20.8586 10.1443 18.5343 12.4792 15.6375 12.4792C12.7352 12.4792 10.3947 10.1388 10.3947 7.23642C10.3947 4.33409 12.7352 1.99363 15.6375 1.99363C18.5343 1.99363 20.8586 4.32857 20.8586 7.23642ZM1.71701 25.6766C1.71701 24.8779 2.10711 24.0851 2.97144 23.288C3.84441 22.4829 5.11398 21.7618 6.61914 21.1595C9.6315 19.954 13.2682 19.3491 15.6375 19.3491C18.0068 19.3491 21.6435 19.954 24.6559 21.1595C26.1611 21.7618 27.4306 22.4829 28.3036 23.288C29.1679 24.0851 29.558 24.8779 29.558 25.6766V29.8347H1.71701V25.6766Z" stroke="#E7F6F2" stroke-width="2.531"/>
</svg>
