<svg width="76" height="35" viewBox="0 0 76 35" fill="none" xmlns="http://www.w3.org/2000/svg">
<path d="M3.34725 27.235C1.31499 25.7432 0.239089 23.6776 0 21.0765L5.55882 20.1202C5.73814 21.9945 6.33586 23.4863 7.23245 24.6339C8.1888 25.7814 9.74288 26.3552 11.9545 26.3552C13.5683 26.3552 14.8235 26.0492 15.6603 25.4754C16.5569 24.8634 16.9753 24.0219 16.9753 22.9126C16.9753 21.7268 16.5569 20.7322 15.7799 19.9672C15.0028 19.1639 13.7476 18.2842 12.074 17.3279L4.48292 13.0437C2.92884 12.2022 1.85294 11.2842 1.13567 10.2896C0.478178 9.29508 0.119545 8.10929 0.119545 6.69399C0.119545 4.59016 1.0759 2.94536 2.98861 1.75956C4.90133 0.573771 7.41176 0 10.6992 0C14.2856 0 16.9753 0.612022 18.7685 1.83607C20.5617 3.06011 21.6973 4.93443 22.056 7.45902L16.7362 8.37705C16.5569 6.69399 16.019 5.39344 15.1822 4.47541C14.3453 3.55738 12.851 3.09836 10.6992 3.09836C9.08539 3.09836 7.88994 3.36612 6.99336 3.90164C6.15655 4.43716 5.73814 5.24044 5.73814 6.27322C5.73814 7.11475 5.97723 7.84153 6.39564 8.4153C6.81404 8.98907 7.59108 9.60109 8.66698 10.1749L16.3178 14.459C18.2903 15.6066 19.9042 16.8306 21.0398 18.1311C22.2353 19.4317 22.7732 20.9235 22.7732 22.6066C22.7732 24.7104 21.7571 26.3934 19.7846 27.6557C17.8121 28.8798 15.1822 29.4918 12.0142 29.4918C8.1888 29.4918 5.31973 28.7268 3.34725 27.235Z" fill="#3A5E68"/>
<path d="M40.3462 29.4536C40.1071 29.4536 39.7485 29.4918 39.2703 29.4918C34.8472 29.4918 31.6792 28.6885 29.7665 27.082C27.8538 25.4754 26.8975 23.1421 26.8975 20.082V9.14208C26.8975 6.15847 27.8538 3.86339 29.8263 2.33333C31.739 0.765027 34.9069 0 39.2703 0C43.6337 0 46.8016 0.765027 48.7741 2.33333C50.6868 3.90164 51.703 6.15847 51.703 9.14208V20.1202C51.703 24.7104 49.4914 27.6175 45.0682 28.8033C46.9212 30.3333 48.4155 31.3661 49.5512 31.8251L48.4753 35C46.2039 34.3115 43.5142 32.4372 40.3462 29.4536ZM44.0521 24.9781C44.8889 24.0984 45.3073 22.7596 45.3073 21V8.30055C45.3073 6.54098 44.8889 5.24044 44.0521 4.39891C43.2153 3.55738 41.6612 3.13661 39.2703 3.13661C36.8794 3.13661 35.2656 3.55738 34.4885 4.39891C33.6517 5.24044 33.2333 6.54098 33.2333 8.30055V20.9617C33.2333 22.7596 33.6517 24.0601 34.4885 24.9399C35.3254 25.8197 36.8794 26.2787 39.2703 26.2787C41.6612 26.3169 43.2153 25.8579 44.0521 24.9781Z" fill="#3A5E68"/>
<path d="M64.1955 26.2787V0.229492H57.8596V29.1475H75.7315V26.2787H64.1955Z" fill="#3A5E68"/>
</svg>
