<svg width="57" height="73" viewBox="0 0 57 73" fill="none" xmlns="http://www.w3.org/2000/svg">
<g clip-path="url(#clip0_150_578)">
<path d="M56.0511 36.7874C56.0511 35.9333 55.42 35.4409 54.6455 35.6854L1.36133 52.5819C0.585226 52.8282 -0.0443115 53.7212 -0.0443115 54.5738V71.8426C-0.0443115 72.6967 0.585226 73.1907 1.36133 72.9446L54.6455 56.0497C55.42 55.8036 56.0511 54.9104 56.0511 54.0565V36.7876V36.7874Z" fill="url(#paint0_linear_150_578)"/>
<path d="M-0.0443115 36.2372C-0.0443115 37.0913 0.585226 37.984 1.36133 38.2304L54.6534 55.1283C55.4292 55.3744 56.059 54.8807 56.059 54.0281V36.7577C56.059 35.9051 55.4292 35.0121 54.6534 34.766L1.36133 17.8681C0.585226 17.622 -0.0443115 18.1142 -0.0443115 18.9681V36.2369V36.2372Z" fill="#FF9800"/>
<path d="M56.0511 1.30185C56.0511 0.447967 55.42 -0.0462143 54.6455 0.200107L1.36133 17.095C0.585226 17.3411 -0.0443115 18.2341 -0.0443115 19.0882V36.3571C-0.0443115 37.2112 0.585226 37.7036 1.36133 37.4588L54.6455 20.5624C55.42 20.3163 56.0511 19.4233 56.0511 18.5707V1.30185Z" fill="#FF9800"/>
</g>
<defs>
<linearGradient id="paint0_linear_150_578" x1="30.8738" y1="57.5603" x2="33.2265" y2="49.6932" gradientUnits="userSpaceOnUse">
<stop stop-color="#FF9700"/>
<stop offset="0.53" stop-color="#F48E00"/>
<stop offset="1" stop-color="#D06F00"/>
</linearGradient>
<clipPath id="clip0_150_578">
<rect width="56.2519" height="72.9516" fill="white" transform="translate(-0.0443115 0.136963)"/>
</clipPath>
</defs>
</svg>
