<svg width="250" height="148" viewBox="0 0 250 148" fill="none" xmlns="http://www.w3.org/2000/svg">
<g opacity="0.8">
<path opacity="0.6" d="M249.342 0H0L0.657761 148H250L249.342 0Z" fill="url(#paint0_linear_209_55)"/>
<path opacity="0.5" d="M84.5403 21.7865H183.18V10.2109H84.5403V21.7865ZM181.863 20.415H85.9118V11.5275H181.863V20.415Z" fill="white"/>
<path d="M63.09 21.7865H85.9121V10.2109H63.09V21.7865ZM84.5406 20.415H64.4067V11.5275H69.8379H84.5955V20.415H84.5406Z" fill="white"/>
<path opacity="0.5" d="M29.2407 40.4941H87.832V44.115H29.2407V40.4941Z" fill="white"/>
<path d="M29.2407 47.3517H87.832V50.9726H29.2407V47.3517Z" fill="white"/>
<path opacity="0.5" d="M47.9483 54.2094H87.832V57.8302H47.9483V54.2094Z" fill="white"/>
<path opacity="0.5" d="M29.2407 65.0169H87.832V68.6377H29.2407V65.0169Z" fill="white"/>
<path d="M29.2407 71.8745H87.832V75.4953H29.2407V71.8745Z" fill="white"/>
<path opacity="0.5" d="M47.9483 78.7321H87.832V82.3529H47.9483V78.7321Z" fill="white"/>
<path opacity="0.5" d="M29.2407 89.5397H87.832V93.1605H29.2407V89.5397Z" fill="white"/>
<path d="M29.2407 96.3973H87.832V100.018H29.2407V96.3973Z" fill="white"/>
<path opacity="0.5" d="M47.9483 103.255H87.832V106.876H47.9483V103.255Z" fill="white"/>
<path d="M201.668 21.7865H229.702C232.445 21.7865 234.694 19.208 234.694 16.081C234.694 12.8991 232.445 10.3755 229.702 10.3755H201.668C198.925 10.3755 196.676 12.9539 196.676 16.081C196.676 19.208 198.925 21.7865 201.668 21.7865ZM229.757 11.6373C231.787 11.6373 233.433 13.6122 233.433 16.0261C233.433 18.44 231.787 20.415 229.757 20.415H201.723C199.693 20.415 198.047 18.44 198.047 16.0261C198.047 13.6122 199.693 11.6373 201.723 11.6373H229.757Z" fill="white"/>
<path opacity="0.5" d="M44.986 13.6671H58.5366V19.0435H44.986V13.6671Z" fill="white"/>
<path d="M220.486 28.3698H234.036V33.7461H220.486V28.3698Z" fill="white"/>
<path d="M205.179 136.61H234.365V119.164H205.179V136.61ZM233.707 135.952H205.838V119.878H233.707V135.952Z" fill="white"/>
<path d="M170.672 136.61H199.858V119.164H170.672V136.61ZM199.2 135.952H171.33V119.878H199.2V135.952Z" fill="white"/>
<path d="M136.164 136.61H165.35V119.164H136.164V136.61ZM164.692 135.952H136.823V119.878H164.692V135.952Z" fill="white"/>
<path d="M101.712 136.61H130.898V119.164H101.712V136.61ZM130.24 135.952H102.37V119.878H130.24V135.952Z" fill="white"/>
<path d="M200.461 28.3698H214.012V33.7461H200.461V28.3698Z" fill="white"/>
<path d="M180.437 28.3698H193.988V33.7461H180.437V28.3698Z" fill="white"/>
<path d="M160.358 28.3698H173.908V33.7461H160.358V28.3698Z" fill="white"/>
<path d="M140.334 28.3698H153.885V33.7461H140.334V28.3698Z" fill="white"/>
<path d="M120.31 28.3698H133.86V33.7461H120.31V28.3698Z" fill="white"/>
<path opacity="0.5" d="M32.4775 13.6671H39.6094V19.0435H32.4775V13.6671Z" fill="white"/>
<path opacity="0.5" d="M17.0617 13.6671H28.5276V19.0435H17.0617V13.6671Z" fill="white"/>
<path opacity="0.5" d="M101.328 115.434H234.749V40.3296H101.328V115.434ZM233.378 114.062H102.699V41.7011H233.378V114.062Z" fill="white"/>
<path d="M143.57 93.5445H196.621L196.347 93.0508L181.973 67.8148L174.951 80.1585L163.101 59.3663L162.827 59.86L143.57 93.5445ZM195.524 92.8862H144.777L163.101 60.7378L174.951 81.53L181.973 69.1863L195.524 92.8862Z" fill="white"/>
<path opacity="0.5" d="M79.7127 135.732C85.5828 135.732 90.3557 130.905 90.3557 124.98C90.3557 119.055 85.5828 114.227 79.7127 114.227C73.8426 114.227 69.0697 119.055 69.0697 124.98C69.0697 130.905 73.8426 135.732 79.7127 135.732ZM79.7127 115.544C84.8696 115.544 89.039 119.768 89.039 124.98C89.039 130.191 84.8696 134.416 79.7127 134.416C74.6107 134.416 70.3864 130.191 70.3864 124.98C70.3864 119.768 74.5558 115.544 79.7127 115.544Z" fill="white"/>
<path opacity="0.5" d="M53.544 135.732C59.4141 135.732 64.187 130.905 64.187 124.98C64.187 119.055 59.4141 114.227 53.544 114.227C47.6739 114.227 42.901 119.055 42.901 124.98C42.901 130.905 47.6739 135.732 53.544 135.732ZM53.544 115.544C58.6461 115.544 62.8704 119.768 62.8704 124.98C62.8704 130.191 58.7009 134.416 53.544 134.416C48.3871 134.416 44.2177 130.191 44.2177 124.98C44.2726 119.768 48.442 115.544 53.544 115.544Z" fill="white"/>
<path opacity="0.5" d="M27.4302 135.732C33.3003 135.732 38.0732 130.905 38.0732 124.98C38.0732 119.055 33.3003 114.227 27.4302 114.227C21.5601 114.227 16.7873 119.055 16.7873 124.98C16.7873 130.905 21.5601 135.732 27.4302 135.732ZM27.4302 115.544C32.5323 115.544 36.7566 119.768 36.7566 124.98C36.7566 130.191 32.5872 134.416 27.4302 134.416C22.2733 134.416 18.1039 130.191 18.1039 124.98C18.1588 119.768 22.3282 115.544 27.4302 115.544Z" fill="white"/>
</g>
<defs>
<linearGradient id="paint0_linear_209_55" x1="0.00659474" y1="74.0069" x2="388" y2="74" gradientUnits="userSpaceOnUse">
<stop stop-color="#0C2B33"/>
<stop offset="0.992708" stop-color="#ACCFD0"/>
</linearGradient>
</defs>
</svg>
