<svg width="250" height="148" viewBox="0 0 250 148" fill="none" xmlns="http://www.w3.org/2000/svg">
<g opacity="0.8">
<path opacity="0.6" d="M0.65775 0H250L249.342 148H0L0.65775 0Z" fill="url(#paint0_linear_209_21)"/>
<path opacity="0.5" d="M165.46 21.7865H66.8201V10.2109H165.46V21.7865ZM68.1367 20.415H164.088V11.5275H68.1367V20.415Z" fill="white"/>
<path d="M186.91 21.7865H164.088V10.2109H186.91V21.7865ZM165.459 20.415H185.593V11.5275H180.162H165.405V20.415H165.459Z" fill="white"/>
<path opacity="0.5" d="M220.759 40.4941H162.168V44.115H220.759V40.4941Z" fill="white"/>
<path d="M220.759 47.3517H162.168V50.9726H220.759V47.3517Z" fill="white"/>
<path opacity="0.5" d="M202.052 54.2094H162.168V57.8302H202.052V54.2094Z" fill="white"/>
<path opacity="0.5" d="M220.759 65.0169H162.168V68.6377H220.759V65.0169Z" fill="white"/>
<path d="M220.759 71.8745H162.168V75.4953H220.759V71.8745Z" fill="white"/>
<path opacity="0.5" d="M202.052 78.7321H162.168V82.3529H202.052V78.7321Z" fill="white"/>
<path opacity="0.5" d="M220.759 89.5397H162.168V93.1605H220.759V89.5397Z" fill="white"/>
<path d="M220.759 96.3973H162.168V100.018H220.759V96.3973Z" fill="white"/>
<path opacity="0.5" d="M202.052 103.255H162.168V106.876H202.052V103.255Z" fill="white"/>
<path d="M48.3318 21.7865H20.298C17.555 21.7865 15.3057 19.2081 15.3057 16.081C15.3057 12.8991 17.555 10.3755 20.298 10.3755H48.3318C51.0749 10.3755 53.3242 12.9539 53.3242 16.081C53.3242 19.2081 51.0749 21.7865 48.3318 21.7865ZM20.2431 11.6373C18.2133 11.6373 16.5675 13.6123 16.5675 16.0261C16.5675 18.44 18.2133 20.415 20.2431 20.415H48.277C50.3068 20.415 51.9527 18.44 51.9527 16.0261C51.9527 13.6123 50.3068 11.6373 48.277 11.6373H20.2431Z" fill="white"/>
<path opacity="0.5" d="M205.014 13.6671H191.463V19.0435H205.014V13.6671Z" fill="white"/>
<path d="M29.5145 28.3698H15.9639V33.7462H29.5145V28.3698Z" fill="white"/>
<path d="M44.8207 136.61H15.6348V119.164H44.8207V136.61ZM16.2931 135.952H44.1624V119.878H16.2931V135.952Z" fill="white"/>
<path d="M79.328 136.61H50.1421V119.164H79.328V136.61ZM50.8004 135.952H78.6697V119.878H50.8004V135.952Z" fill="white"/>
<path d="M113.836 136.61H84.6497V119.164H113.836V136.61ZM85.308 135.952H113.177V119.878H85.308V135.952Z" fill="white"/>
<path d="M148.288 136.61H119.102V119.164H148.288V136.61ZM119.76 135.952H147.63V119.878H119.76V135.952Z" fill="white"/>
<path d="M49.5389 28.3698H35.9883V33.7462H49.5389V28.3698Z" fill="white"/>
<path d="M69.5628 28.3698H56.0122V33.7462H69.5628V28.3698Z" fill="white"/>
<path d="M89.6422 28.3698H76.0916V33.7462H89.6422V28.3698Z" fill="white"/>
<path d="M109.666 28.3698H96.1155V33.7462H109.666V28.3698Z" fill="white"/>
<path d="M129.69 28.3698H116.14V33.7462H129.69V28.3698Z" fill="white"/>
<path opacity="0.5" d="M217.523 13.6671H210.391V19.0435H217.523V13.6671Z" fill="white"/>
<path opacity="0.5" d="M232.938 13.6671H221.472V19.0435H232.938V13.6671Z" fill="white"/>
<path opacity="0.5" d="M148.672 115.434H15.2507V40.3296H148.672V115.434ZM16.6223 114.062H147.301V41.7011H16.6223V114.062Z" fill="white"/>
<path d="M106.43 93.5445H53.3792L53.6535 93.0508L68.027 67.8148L75.0492 80.1585L86.8991 59.3663L87.1734 59.86L106.43 93.5445ZM54.4764 92.8862H105.223L86.8991 60.7378L75.0492 81.53L68.027 69.1863L54.4764 92.8862Z" fill="white"/>
<path opacity="0.5" d="M170.287 135.732C164.417 135.732 159.644 130.905 159.644 124.98C159.644 119.055 164.417 114.227 170.287 114.227C176.157 114.227 180.93 119.055 180.93 124.98C180.93 130.905 176.157 135.732 170.287 135.732ZM170.287 115.544C165.13 115.544 160.961 119.768 160.961 124.98C160.961 130.192 165.13 134.416 170.287 134.416C175.389 134.416 179.614 130.192 179.614 124.98C179.614 119.768 175.444 115.544 170.287 115.544Z" fill="white"/>
<path opacity="0.5" d="M196.456 135.732C190.586 135.732 185.813 130.905 185.813 124.98C185.813 119.055 190.586 114.227 196.456 114.227C202.326 114.227 207.099 119.055 207.099 124.98C207.099 130.905 202.326 135.732 196.456 135.732ZM196.456 115.544C191.354 115.544 187.13 119.768 187.13 124.98C187.13 130.192 191.299 134.416 196.456 134.416C201.613 134.416 205.782 130.192 205.782 124.98C205.727 119.768 201.558 115.544 196.456 115.544Z" fill="white"/>
<path opacity="0.5" d="M222.57 135.732C216.7 135.732 211.927 130.905 211.927 124.98C211.927 119.055 216.7 114.227 222.57 114.227C228.44 114.227 233.213 119.055 233.213 124.98C233.213 130.905 228.44 135.732 222.57 135.732ZM222.57 115.544C217.468 115.544 213.243 119.768 213.243 124.98C213.243 130.192 217.413 134.416 222.57 134.416C227.727 134.416 231.896 130.192 231.896 124.98C231.841 119.768 227.672 115.544 222.57 115.544Z" fill="white"/>
</g>
<defs>
<linearGradient id="paint0_linear_209_21" x1="249.993" y1="74.0069" x2="-190" y2="74" gradientUnits="userSpaceOnUse">
<stop stop-color="#0C2B33"/>
<stop offset="0.992708" stop-color="#ACCFD0"/>
</linearGradient>
</defs>
</svg>
