<svg width="74" height="73" viewBox="0 0 74 73" fill="none" xmlns="http://www.w3.org/2000/svg">
<g clip-path="url(#clip0_150_562)">
<path d="M70.7496 7.85543L55.659 0.589559C54.8067 0.179235 53.848 0.043954 52.9155 0.202437C51.9829 0.360919 51.1227 0.80533 50.4539 1.47417L1.05241 46.5166C-0.276229 47.7284 -0.274506 49.8201 1.05586 51.0299L5.09117 54.6981C5.61834 55.1775 6.29662 55.4572 7.00842 55.4889C7.72022 55.5206 8.42067 55.3022 8.98834 54.8716L68.479 9.74039C70.4748 8.2265 73.3414 9.64992 73.3414 12.155V11.9798C73.3414 11.1181 73.0982 10.2738 72.6397 9.54424C72.1812 8.81462 71.5261 8.22924 70.7496 7.85543Z" fill="#0065A9"/>
<path d="M70.7496 65.281L55.659 72.5469C54.8067 72.9571 53.848 73.0923 52.9155 72.9339C51.983 72.7754 51.1228 72.331 50.4539 71.6623L1.05241 26.6198C-0.276229 25.4083 -0.274506 23.3163 1.05586 22.1068L5.09117 18.4383C5.61837 17.959 6.29667 17.6793 7.00847 17.6477C7.72027 17.616 8.4207 17.8345 8.98834 18.2651L68.479 63.396C70.4748 64.9099 73.3414 63.4865 73.3414 60.9812V61.1566C73.3414 62.0183 73.0981 62.8625 72.6396 63.5922C72.1812 64.3218 71.526 64.9071 70.7496 65.281Z" fill="#007ACC"/>
<path d="M55.6116 72.5526C54.7591 72.9626 53.8003 73.0977 52.8677 72.939C51.9351 72.7804 51.0749 72.3359 50.4059 71.6671C52.095 73.3559 54.9835 72.1597 54.9835 69.7706V3.3746C54.9835 0.985581 52.095 -0.210654 50.4059 1.47844C51.0748 0.809542 51.9351 0.365019 52.8676 0.206338C53.8002 0.0476578 54.7591 0.18266 55.6116 0.592676L70.6996 7.84849C71.4765 8.2221 72.1321 8.8075 72.591 9.53731C73.0498 10.2671 73.2932 11.1117 73.2932 11.9737V61.1721C73.2932 62.9313 72.2851 64.5351 70.6996 65.2973L55.6116 72.5529V72.5526Z" fill="#1F9CF0"/>
<path d="M51.9928 72.688C52.5756 72.9152 53.1989 73.0201 53.8239 72.9961C54.449 72.9721 55.0624 72.8197 55.626 72.5484L70.7046 65.2926C71.4812 64.9188 72.1366 64.3333 72.5952 63.6035C73.0538 62.8738 73.2971 62.0293 73.297 61.1674V11.9693C73.297 11.1074 73.0538 10.263 72.5953 9.53322C72.1367 8.80344 71.4815 8.21794 70.7049 7.84407L55.6257 0.587971C54.7737 0.178044 53.8154 0.0430865 52.8833 0.201777C51.9512 0.360467 51.0915 0.804957 50.4232 1.47373L21.5567 27.8098L8.98263 18.2652C8.41544 17.8347 7.71543 17.6163 7.00404 17.6479C6.29265 17.6796 5.61478 17.9592 5.08805 18.4384L1.05532 22.107C-0.27447 23.3164 -0.275906 25.4085 1.05187 26.6199L11.9564 36.5683L1.05187 46.5165C-0.275906 47.7282 -0.27447 49.82 1.05532 51.0297L5.08805 54.698C5.61475 55.1772 6.2926 55.4569 7.00399 55.4886C7.71537 55.5203 8.41541 55.302 8.98263 54.8714L21.5567 45.3266L50.4232 71.6624C50.8696 72.1094 51.4041 72.4587 51.9928 72.688ZM54.9982 19.9417L33.0949 36.5683L54.9982 53.1944V19.942V19.9417Z" fill="url(#paint0_linear_150_562)" fill-opacity="0.25"/>
</g>
<defs>
<linearGradient id="paint0_linear_150_562" x1="36.677" y1="0.137085" x2="36.677" y2="72.9994" gradientUnits="userSpaceOnUse">
<stop stop-color="white"/>
<stop offset="1" stop-color="white" stop-opacity="0"/>
</linearGradient>
<clipPath id="clip0_150_562">
<rect width="73.526" height="72.9516" fill="white" transform="translate(0.0568848 0.136963)"/>
</clipPath>
</defs>
</svg>
