<svg width="123" height="73" viewBox="0 0 123 73" fill="none" xmlns="http://www.w3.org/2000/svg">
<path fill-rule="evenodd" clip-rule="evenodd" d="M110.645 0.136963H11.1814C4.88693 0.136963 -0.208461 5.28247 -0.15882 11.5268V49.4938C-0.15882 55.7882 4.93705 60.8841 11.2315 60.8841H58.3401L79.872 72.8734L74.9757 60.8841H110.645C116.939 60.8841 122.035 55.7882 122.035 49.4938V11.5268C122.035 5.23236 116.939 0.136963 110.645 0.136963ZM9.08353 8.9292C7.68498 9.02944 6.63583 9.52871 5.93608 10.4781C5.23681 11.3769 4.98717 12.5258 5.13705 13.8251C8.0845 32.5589 10.832 45.1974 13.3799 51.742C14.3789 54.1395 15.5278 55.2889 16.8767 55.1892C18.975 55.0388 21.4729 52.1415 24.4203 46.4967C25.9687 43.2991 28.3668 38.5035 31.6135 32.1088C34.3113 41.5507 38.0082 48.6446 42.6539 53.3906C43.9532 54.739 45.3021 55.3386 46.6004 55.2388C47.7498 55.1386 48.6491 54.5395 49.2486 53.4403C49.7479 52.4913 49.9479 51.3921 49.8481 50.1434C49.5483 45.5974 49.998 39.2529 51.2467 31.1098C52.5454 22.7171 54.144 16.6723 56.0924 13.0757C56.4919 12.3263 56.6418 11.5769 56.5922 10.6776C56.4919 9.52871 55.9926 8.5798 55.0433 7.83041C54.0943 7.08102 53.0452 6.73114 51.8963 6.8309C50.4476 6.93114 49.3484 7.63041 48.599 9.02896C45.5016 14.6742 43.3036 23.8163 42.0048 36.5049C40.1065 31.7093 38.5084 26.065 37.2588 19.4207C36.7099 16.4732 35.3605 15.0742 33.1624 15.2241C31.6636 15.3243 30.415 16.3234 29.4155 18.2217L18.4753 39.0529C16.6767 31.8091 14.9784 22.9672 13.43 12.5263C13.0801 9.92823 11.6315 8.7292 9.08353 8.9292ZM105.349 12.5263C108.896 13.2757 111.544 15.174 113.343 18.321C114.941 21.0188 115.74 24.266 115.74 28.1628C115.74 33.3083 114.442 38.0042 111.844 42.3001C108.846 47.2962 104.95 49.794 100.104 49.794C99.2546 49.794 98.3558 49.6938 97.4064 49.4938C93.8599 48.7444 91.2117 46.8466 89.4132 43.6991C87.8146 40.9517 87.0156 37.6543 87.0156 33.8076C87.0156 28.6621 88.3144 23.9662 90.912 19.72C93.9596 14.7243 97.856 12.2265 102.652 12.2265C103.501 12.2265 104.401 12.3268 105.349 12.5263ZM103.252 39.5521C105.1 37.904 106.348 35.4563 107.048 32.1589C107.248 31.01 107.398 29.7614 107.398 28.4626C107.398 27.0134 107.098 25.465 106.498 23.9161C105.749 21.9682 104.75 20.9185 103.551 20.6694C101.753 20.3195 100.004 21.3185 98.3558 23.7667C97.0069 25.665 96.1572 27.6631 95.7081 29.7112C95.458 30.8602 95.3582 32.1093 95.3582 33.358C95.3582 34.8066 95.658 36.3555 96.2575 37.904C97.0069 39.8524 98.0059 40.9015 99.2049 41.1512C100.454 41.4008 101.802 40.8514 103.252 39.5521ZM82.02 18.321C80.2214 15.174 77.5236 13.2757 74.0268 12.5263C73.0774 12.3263 72.1786 12.2265 71.3289 12.2265C66.5333 12.2265 62.6369 14.7243 59.5893 19.7205C56.9912 23.9662 55.6929 28.6621 55.6929 33.8076C55.6929 37.6548 56.4919 40.9517 58.0905 43.6991C59.889 46.8466 62.5367 48.7444 66.0837 49.4938C67.0326 49.6938 67.9319 49.7935 68.7815 49.7935C73.6272 49.7935 77.5236 47.2962 80.5212 42.3001C83.1188 38.0042 84.4175 33.3078 84.4175 28.1628C84.4175 24.266 83.618 21.0188 82.02 18.3214V18.321ZM75.7251 32.1594C75.0258 35.4567 73.7766 37.9044 71.9285 39.5531C70.4798 40.8519 69.1314 41.4013 67.8822 41.1521C66.6832 40.902 65.6837 39.8529 64.9348 37.9044C64.3352 36.356 64.0355 34.8071 64.0355 33.3584C64.0355 32.1098 64.1353 30.8606 64.3854 29.7117C64.8345 27.6635 65.6837 25.6655 67.0326 23.7672C68.6817 21.319 70.4302 20.32 72.2282 20.6694C73.4272 20.9195 74.4263 21.9686 75.1757 23.9166C75.7752 25.4655 76.0749 27.0144 76.0749 28.463C76.0749 29.7614 75.9747 31.0105 75.7251 32.1594Z" fill="#7F54B3"/>
</svg>
