<svg width="74" height="74" viewBox="0 0 74 74" fill="none" xmlns="http://www.w3.org/2000/svg">
<path d="M58.4093 35.3654C58.4093 31.499 57.0187 28.8225 55.8286 26.7389L55.4639 26.1461C54.0185 23.8208 52.7555 21.7782 52.7555 19.3981C52.7555 16.5256 54.935 13.8447 58.0081 13.8447C58.0993 13.8447 58.1859 13.8538 58.2725 13.8583L58.4139 13.872C52.6515 8.57911 45.1096 5.64634 37.2852 5.65585C32.0996 5.65318 26.9948 6.94081 22.4308 9.40269C17.8668 11.8646 13.9871 15.4233 11.1412 19.7583C11.8707 19.7811 12.5683 19.7993 13.1565 19.7993C16.4256 19.7993 21.4912 19.4027 21.4912 19.4027C23.1782 19.3024 23.3788 21.7782 21.6918 21.9788C21.6918 21.9788 20.0003 22.1794 18.1126 22.2751L29.5113 56.1703L36.3505 35.6253L31.4719 22.2706C29.7895 22.1703 28.1936 21.9742 28.1936 21.9742C26.5066 21.8739 26.7073 19.2932 28.3897 19.3935C28.3897 19.3935 33.5602 19.7902 36.6332 19.7902C39.9069 19.7902 44.9771 19.3935 44.9771 19.3935C46.6641 19.2932 46.8601 21.7736 45.1731 21.9742C45.1731 21.9742 43.477 22.1703 41.5939 22.2706L52.9015 55.9058L56.0201 45.4783L56.2663 44.6895C57.4974 40.7684 58.4047 37.8731 58.4047 35.3608L58.4093 35.3654ZM5.99356 36.9475C5.99324 42.8235 7.64718 48.5809 10.7661 53.5609C13.885 58.5408 18.3429 62.5421 23.6296 65.1069L8.69733 24.2084C6.90924 28.217 5.98788 32.5581 5.99356 36.9475Z" fill="#21759B"/>
<path d="M28.4446 66.9624L37.8371 39.683L47.453 66.0368C47.5169 66.1873 47.5898 66.3286 47.6765 66.4654C41.4776 68.6493 34.748 68.8232 28.4446 66.9624ZM64.738 21.933C64.8748 22.9315 64.9523 23.9984 64.9523 25.152C64.9523 28.3254 64.3596 31.8954 62.5723 36.3592L53.0156 63.9896C60.0678 59.8923 65.2406 53.2023 67.4312 45.3459C69.6219 37.4896 68.6571 29.0883 64.7426 21.933H64.738Z" fill="#21759B"/>
<path fill-rule="evenodd" clip-rule="evenodd" d="M0.80957 36.9474C0.80957 16.8355 17.1735 0.471558 37.2854 0.471558C57.3927 0.471558 73.7612 16.8355 73.7612 36.9474C73.7612 57.0592 57.3927 73.4232 37.2854 73.4232C17.1735 73.4232 0.80957 57.0592 0.80957 36.9474ZM2.4829 36.9474C2.4829 56.1382 18.0945 71.7499 37.2854 71.7499C56.4717 71.7499 72.0833 56.1382 72.0833 36.9474C72.0833 17.752 56.4717 2.14489 37.2854 2.14489C18.09 2.14489 2.4829 17.752 2.4829 36.9474Z" fill="#21759B"/>
</svg>
